<svg width="26" height="26" viewBox="0 0 26 26" fill="none" xmlns="http://www.w3.org/2000/svg">
<g id="Home - ReNew - Home - v2">
<g id="factory">
<mask id="mask0_0_1" style="mask-type:alpha" maskUnits="userSpaceOnUse" x="0" y="0" width="26" height="26">
<rect id="Bounding box" y="-2.28882e-05" width="26" height="26" fill="#D9D9D9"/>
</mask>
<g mask="url(#mask0_0_1)">
<path id="factory_2" d="M3.25 22.7499V11.5352L8.66667 9.22908V11.354L14.0833 9.18737V11.9166H22.75V22.7499H3.25ZM4.33333 21.6666H21.6667V12.9999H13V10.7791L7.58333 12.9457V10.8332L4.33333 12.2686V21.6666ZM12.1666 18.9999H13.8334V15.6665H12.1666V18.9999ZM7.83331 18.9999H9.50002V15.6665H7.83331V18.9999ZM16.5 18.9999H18.1667V15.6665H16.5V18.9999ZM22.75 11.9166H19.3749L20.4582 4.08324H21.7918L22.75 11.9166Z" fill="#737373"/>
</g>
</g>
</g>
</svg>
