<svg width="26" height="26" viewBox="0 0 26 26" fill="none" xmlns="http://www.w3.org/2000/svg">
<g id="Home - ReNew - Home - v2">
<g id="handshake">
<mask id="mask0_0_1" style="mask-type:alpha" maskUnits="userSpaceOnUse" x="0" y="0" width="26" height="26">
<rect id="Bounding box" y="7.62939e-06" width="26" height="26" fill="#D9D9D9"/>
</mask>
<g mask="url(#mask0_0_1)">
<path id="handshake_2" d="M12.6774 21.6041C12.819 21.6041 12.9641 21.5722 13.1127 21.5082C13.2613 21.4445 13.3814 21.3668 13.4732 21.2751L21.9191 12.8291C22.1912 12.557 22.4013 12.2786 22.5493 11.9939C22.6972 11.7091 22.7711 11.3966 22.7711 11.0562C22.7711 10.7117 22.6972 10.3774 22.5493 10.0531C22.4013 9.7288 22.1912 9.4326 21.9191 9.16448L17.8566 5.10198C17.5885 4.82988 17.3131 4.63028 17.0306 4.50317C16.7478 4.37605 16.4343 4.3125 16.0899 4.3125C15.7496 4.3125 15.4336 4.37605 15.142 4.50317C14.8503 4.63028 14.5753 4.82988 14.3171 5.10198L13.3732 6.04583L15.3774 8.05623C15.5926 8.2673 15.753 8.50762 15.8587 8.77719C15.9641 9.04658 16.0168 9.32012 16.0168 9.59781C16.0168 10.1619 15.8325 10.6282 15.4638 10.9969C15.0951 11.3656 14.6288 11.55 14.0649 11.55C13.7871 11.55 13.5159 11.5076 13.2513 11.423C12.9868 11.3383 12.7489 11.1903 12.5377 10.9791L10.4647 8.9126L5.78772 13.5896C5.67812 13.6994 5.59588 13.8241 5.54099 13.9636C5.4861 14.1032 5.45866 14.2438 5.45866 14.3853C5.45866 14.641 5.54063 14.8518 5.70457 15.0177C5.86834 15.1837 6.07805 15.2666 6.33372 15.2666C6.47527 15.2666 6.62035 15.2347 6.76895 15.1707C6.91754 15.107 7.0377 15.0293 7.12943 14.9376L10.5628 11.5042L11.3295 12.2709L7.90239 15.7043C7.79261 15.8139 7.71027 15.9385 7.65539 16.078C7.60068 16.2176 7.57332 16.3583 7.57332 16.5C7.57332 16.7418 7.65873 16.948 7.82953 17.1189C8.00034 17.2897 8.20653 17.3751 8.44811 17.3751C8.58985 17.3751 8.73502 17.3431 8.88361 17.2792C9.03221 17.2153 9.15237 17.1375 9.24409 17.0457L12.9274 13.3689L13.6942 14.1354L10.0171 17.8187C9.92118 17.9104 9.84236 18.0306 9.78061 18.1792C9.71868 18.3278 9.68772 18.4729 9.68772 18.6147C9.68772 18.8562 9.77312 19.0624 9.94393 19.2332C10.1149 19.4042 10.3212 19.4897 10.5628 19.4897C10.7045 19.4897 10.8452 19.4623 10.9847 19.4074C11.1243 19.3525 11.2489 19.2702 11.3585 19.1604L15.0418 15.4833L15.8086 16.25L12.1252 19.9334C12.0156 20.0431 11.9334 20.1748 11.8785 20.3282C11.8236 20.4817 11.7962 20.6223 11.7962 20.7499C11.7962 21.0056 11.8861 21.2119 12.0659 21.3688C12.2457 21.5257 12.4496 21.6041 12.6774 21.6041ZM12.6712 22.6875C12.1142 22.6875 11.6374 22.4837 11.2409 22.0762C10.8444 21.6685 10.6705 21.1653 10.7191 20.5666C10.1052 20.5736 9.59401 20.3903 9.18559 20.0168C8.77736 19.643 8.58362 19.1215 8.60439 18.4522C7.93507 18.459 7.40766 18.2677 7.02218 17.8783C6.63669 17.4886 6.46137 16.975 6.49622 16.3375C5.89334 16.3445 5.38914 16.1751 4.98361 15.8291C4.57809 15.4834 4.37532 15.0021 4.37532 14.3853C4.37532 14.1076 4.42913 13.8296 4.53674 13.5512C4.64435 13.2726 4.80369 13.0277 5.01476 12.8167L10.4647 7.37291L13.2627 10.1709C13.3544 10.2668 13.4676 10.3456 13.6023 10.4073C13.737 10.4691 13.8892 10.5 14.0587 10.5C14.2905 10.5 14.4954 10.4191 14.6732 10.2573C14.8511 10.0955 14.94 9.88471 14.94 9.62489C14.94 9.45553 14.909 9.3035 14.8471 9.16881C14.7853 9.03412 14.7065 8.92091 14.6107 8.82919L10.8837 5.10198C10.6156 4.82988 10.3367 4.63028 10.0471 4.50317C9.7575 4.37605 9.44054 4.3125 9.09622 4.3125C8.75587 4.3125 8.44685 4.37605 8.16916 4.50317C7.89128 4.63028 7.6162 4.82988 7.34393 5.10198L4.04599 8.40614C3.81416 8.63816 3.62674 8.91459 3.48374 9.23544C3.34056 9.55628 3.26482 9.88751 3.25651 10.2291C3.2482 10.4736 3.26906 10.7087 3.31907 10.9344C3.36909 11.1601 3.44826 11.3722 3.55659 11.5708L2.7357 12.3917C2.5537 12.1014 2.41133 11.767 2.30859 11.3886C2.20586 11.0101 2.15864 10.6236 2.16695 10.2291C2.17525 9.73747 2.27384 9.26631 2.4627 8.81564C2.65156 8.36498 2.92176 7.96396 3.2733 7.6126L6.55039 4.33552C6.92811 3.96177 7.32777 3.68398 7.74936 3.50216C8.17078 3.32016 8.62668 3.22916 9.11707 3.22916C9.60728 3.22916 10.0597 3.32016 10.4742 3.50216C10.8888 3.68398 11.2828 3.96177 11.6564 4.33552L12.6003 5.2791L13.5441 4.33552C13.9218 3.96177 14.318 3.68398 14.7325 3.50216C15.1471 3.32016 15.5996 3.22916 16.0899 3.22916C16.5802 3.22916 17.0361 3.32016 17.4577 3.50216C17.8791 3.68398 18.2767 3.96177 18.6504 4.33552L22.6858 8.37094C23.0594 8.74451 23.3476 9.16394 23.5503 9.62923C23.7531 10.0945 23.8545 10.5723 23.8545 11.0625C23.8545 11.5529 23.7531 12.0053 23.5503 12.4199C23.3476 12.8344 23.0594 13.2285 22.6858 13.6021L14.2399 22.0418C14.0149 22.2668 13.7701 22.4306 13.5054 22.5334C13.2409 22.6361 12.9628 22.6875 12.6712 22.6875Z" fill="#737373"/>
</g>
</g>
</g>
</svg>
