<svg width="122" height="81" viewBox="0 0 122 81" fill="none" xmlns="http://www.w3.org/2000/svg">

<g id="Home - ReNew - Home - v2">

<g id="Group 1414594291">
<g id="Asset 1 1" clip-path="url(#clip0_0_1)">
<g id="Layer 1">
<g id="Group">
<g id="Group_2">
<g id="Group_3">
<path id="Vector" d="M30.9968 16.08L29.7305 16.927L30.5788 18.1912L31.8451 17.3443L30.9968 16.08Z" fill="#8DC63F"/>
<path id="Vector_2" d="M28.7333 12.2304L27.0264 13.3721L28.1699 15.0762L29.8769 13.9345L28.7333 12.2304Z" fill="#8DC63F"/>
<path id="Vector_3" d="M26.5949 8.82175L24.6816 10.1014L25.9634 12.0116L27.8767 10.7319L26.5949 8.82175Z" fill="#8DC63F"/>
<path id="Vector_4" d="M24.3771 5.39634L22.3525 6.75049L23.7089 8.77177L25.7335 7.41762L24.3771 5.39634Z" fill="#8DC63F"/>
<path id="Vector_5" d="M22.1063 2.88341L20.8877 3.69849L21.7041 4.91512L22.9227 4.10004L22.1063 2.88341Z" fill="#8DC63F"/>
<path id="Vector_6" d="M19.9955 5.63803e-05L19.0195 0.652832L19.6734 1.6272L20.6493 0.974425L19.9955 5.63803e-05Z" fill="#8DC63F"/>
</g>
<g id="Group_4">
<path id="Vector_7" d="M27.5656 18.672L26.4658 19.7256L27.5212 20.8235L28.6209 19.7699L27.5656 18.672Z" fill="#8DC63F"/>
<path id="Vector_8" d="M24.666 15.2728L23.1836 16.6931L24.6062 18.1731L26.0886 16.7529L24.666 15.2728Z" fill="#8DC63F"/>
<path id="Vector_9" d="M21.9683 12.2866L20.3066 13.8785L21.9012 15.5374L23.5628 13.9455L21.9683 12.2866Z" fill="#8DC63F"/>
<path id="Vector_10" d="M19.188 9.29834L17.4297 10.9829L19.117 12.7383L20.8753 11.0538L19.188 9.29834Z" fill="#8DC63F"/>
<path id="Vector_11" d="M16.5144 7.21663L15.4561 8.23059L16.4717 9.2872L17.53 8.27324L16.5144 7.21663Z" fill="#8DC63F"/>
<path id="Vector_12" d="M13.9345 4.743L13.0869 5.55505L13.9003 6.40127L14.7479 5.58921L13.9345 4.743Z" fill="#8DC63F"/>
</g>
<g id="Group_5">
<path id="Vector_13" d="M24.6371 21.8187L23.7373 23.047L24.9676 23.9453L25.8674 22.717L24.6371 21.8187Z" fill="#8DC63F"/>
<path id="Vector_14" d="M21.1904 18.9747L19.9775 20.6304L21.6359 21.8413L22.8488 20.1856L21.1904 18.9747Z" fill="#8DC63F"/>
<path id="Vector_15" d="M18.0138 16.5017L16.6543 18.3575L18.5132 19.7148L19.8726 17.859L18.0138 16.5017Z" fill="#8DC63F"/>
<path id="Vector_16" d="M14.756 14.0405L13.3174 16.0043L15.2844 17.4405L16.723 15.4767L14.756 14.0405Z" fill="#8DC63F"/>
<path id="Vector_17" d="M11.7614 12.4541L10.8955 13.6361L12.0795 14.5006L12.9454 13.3186L11.7614 12.4541Z" fill="#8DC63F"/>
<path id="Vector_18" d="M8.79016 10.4652L8.09668 11.4119L9.04489 12.1042L9.73837 11.1575L8.79016 10.4652Z" fill="#8DC63F"/>
</g>
<g id="Group_6">
<path id="Vector_19" d="M22.3004 25.4262L21.6279 26.7917L22.9958 27.4631L23.6682 26.0975L22.3004 25.4262Z" fill="#8DC63F"/>
<path id="Vector_20" d="M18.4114 23.2228L17.5049 25.0636L19.3487 25.9686L20.2552 24.1278L18.4114 23.2228Z" fill="#8DC63F"/>
<path id="Vector_21" d="M14.853 21.3379L13.8369 23.4012L15.9036 24.4156L16.9197 22.3523L14.853 21.3379Z" fill="#8DC63F"/>
<path id="Vector_22" d="M11.2168 19.4791L10.1416 21.6625L12.3286 22.7359L13.4037 20.5525L11.2168 19.4791Z" fill="#8DC63F"/>
<path id="Vector_23" d="M7.9909 18.4358L7.34375 19.75L8.6601 20.3961L9.30725 19.0819L7.9909 18.4358Z" fill="#8DC63F"/>
<path id="Vector_24" d="M4.71946 16.9927L4.20117 18.0452L5.2554 18.5626L5.77369 17.5101L4.71946 16.9927Z" fill="#8DC63F"/>
</g>
<g id="Group_7">
<path id="Vector_25" d="M20.6258 29.3814L20.2012 30.8429L21.665 31.2668L22.0896 29.8054L20.6258 29.3814Z" fill="#8DC63F"/>
<path id="Vector_26" d="M16.4143 27.8878L15.8418 29.8578L17.815 30.4294L18.3875 28.4594L16.4143 27.8878Z" fill="#8DC63F"/>
<path id="Vector_27" d="M12.5812 26.6489L11.9395 28.8571L14.1512 29.4977L14.7929 27.2896L12.5812 26.6489Z" fill="#8DC63F"/>
<path id="Vector_28" d="M8.67712 25.4484L7.99805 27.785L10.3385 28.463L11.0175 26.1264L8.67712 25.4484Z" fill="#8DC63F"/>
<path id="Vector_29" d="M5.3189 24.9805L4.91016 26.387L6.31888 26.795L6.72762 25.3886L5.3189 24.9805Z" fill="#8DC63F"/>
<path id="Vector_30" d="M1.8459 24.1263L1.51855 25.2527L2.64677 25.5795L2.97412 24.4531L1.8459 24.1263Z" fill="#8DC63F"/>
</g>
<g id="Group_8">
<path id="Vector_31" d="M19.6649 33.569L19.501 35.0819L21.0163 35.2456L21.1803 33.7327L19.6649 33.569Z" fill="#8DC63F"/>
<path id="Vector_32" d="M15.2562 32.8265L15.0352 34.8658L17.0778 35.0865L17.2989 33.0472L15.2562 32.8265Z" fill="#8DC63F"/>
<path id="Vector_33" d="M11.2663 32.2708L11.0186 34.5566L13.3081 34.804L13.5559 32.5181L11.2663 32.2708Z" fill="#8DC63F"/>
<path id="Vector_34" d="M7.21352 31.7679L6.95117 34.1868L9.37396 34.4487L9.6363 32.0299L7.21352 31.7679Z" fill="#8DC63F"/>
<path id="Vector_35" d="M3.82588 31.8893L3.66797 33.3452L5.12627 33.5029L5.28418 32.0469L3.82588 31.8893Z" fill="#8DC63F"/>
<path id="Vector_36" d="M0.256347 31.6503L0.129883 32.8163L1.2978 32.9425L1.42426 31.7765L0.256347 31.6503Z" fill="#8DC63F"/>
</g>
<g id="Group_9">
<path id="Vector_37" d="M19.4491 37.8595L19.5508 39.3778L21.0716 39.2763L20.9699 37.758L19.4491 37.8595Z" fill="#8DC63F"/>
<path id="Vector_38" d="M14.9772 37.8928L15.1143 39.9395L17.1643 39.8026L17.0272 37.756L14.9772 37.8928Z" fill="#8DC63F"/>
<path id="Vector_39" d="M10.9519 38.0369L11.1055 40.3309L13.4033 40.1776L13.2497 37.8835L10.9519 38.0369Z" fill="#8DC63F"/>
<path id="Vector_40" d="M6.87164 38.2423L7.03418 40.6698L9.4657 40.5075L9.30316 38.08L6.87164 38.2423Z" fill="#8DC63F"/>
<path id="Vector_41" d="M3.55646 38.9487L3.6543 40.4099L5.11785 40.3122L5.02002 38.8511L3.55646 38.9487Z" fill="#8DC63F"/>
<path id="Vector_42" d="M-0.000228996 39.3325L0.078125 40.5027L1.25025 40.4245L1.1719 39.2542L-0.000228996 39.3325Z" fill="#8DC63F"/>
</g>
<g id="Group_10">
<path id="Vector_43" d="M19.9805 42.1225L20.3447 43.6001L21.8248 43.2365L21.4606 41.7589L19.9805 42.1225Z" fill="#8DC63F"/>
<path id="Vector_44" d="M15.5833 42.9304L16.0742 44.9222L18.0693 44.4321L17.5784 42.4403L15.5833 42.9304Z" fill="#8DC63F"/>
<path id="Vector_45" d="M11.6441 43.7704L12.1943 46.0029L14.4306 45.4535L13.8803 43.221L11.6441 43.7704Z" fill="#8DC63F"/>
<path id="Vector_46" d="M7.66184 44.6796L8.24414 47.0421L10.6105 46.4608L10.0282 44.0983L7.66184 44.6796Z" fill="#8DC63F"/>
<path id="Vector_47" d="M4.51962 45.9502L4.87012 47.3722L6.29445 47.0223L5.94396 45.6003L4.51962 45.9502Z" fill="#8DC63F"/>
<path id="Vector_48" d="M1.08356 46.9446L1.36426 48.0835L2.50497 47.8033L2.22427 46.6644L1.08356 46.9446Z" fill="#8DC63F"/>
</g>
<g id="Group_11">
<path id="Vector_49" d="M21.2466 46.2286L21.8623 47.6206L23.2566 47.0059L22.6409 45.6139L21.2466 46.2286Z" fill="#8DC63F"/>
<path id="Vector_50" d="M17.0558 47.7866L17.8857 49.6631L19.7653 48.8345L18.9353 46.9581L17.0558 47.7866Z" fill="#8DC63F"/>
<path id="Vector_51" d="M13.3227 49.2965L14.2529 51.3998L16.3596 50.4711L15.4294 48.3678L13.3227 49.2965Z" fill="#8DC63F"/>
<path id="Vector_52" d="M9.5586 50.8826L10.543 53.1083L12.7723 52.1255L11.7879 49.8999L9.5586 50.8826Z" fill="#8DC63F"/>
<path id="Vector_53" d="M6.68582 52.6786L7.27832 54.0182L8.62016 53.4267L8.02765 52.087L6.68582 52.6786Z" fill="#8DC63F"/>
<path id="Vector_54" d="M3.47568 54.2534L3.9502 55.3263L5.02484 54.8525L4.55032 53.7797L3.47568 54.2534Z" fill="#8DC63F"/>
</g>
<g id="Group_12">
<path id="Vector_55" d="M23.2082 50.0524L24.0566 51.3165L25.3229 50.4695L24.4744 49.2053L23.2082 50.0524Z" fill="#8DC63F"/>
<path id="Vector_56" d="M19.3524 52.3133L20.4961 54.0173L22.2029 52.8755L21.0593 51.1715L19.3524 52.3133Z" fill="#8DC63F"/>
<path id="Vector_57" d="M15.9388 54.4476L17.2207 56.3577L19.1339 55.0778L17.8519 53.1678L15.9388 54.4476Z" fill="#8DC63F"/>
<path id="Vector_58" d="M12.5077 56.6619L13.8643 58.6831L15.8887 57.3288L14.5322 55.3076L12.5077 56.6619Z" fill="#8DC63F"/>
<path id="Vector_59" d="M9.99013 58.9289L10.8066 60.1455L12.0252 59.3303L11.2087 58.1138L9.99013 58.9289Z" fill="#8DC63F"/>
<path id="Vector_60" d="M7.10292 61.0362L7.75684 62.0105L8.73275 61.3576L8.07883 60.3833L7.10292 61.0362Z" fill="#8DC63F"/>
</g>
<g id="Group_13">
<path id="Vector_61" d="M25.803 53.4787L26.8584 54.5765L27.9581 53.5228L26.9026 52.425L25.803 53.4787Z" fill="#8DC63F"/>
<path id="Vector_62" d="M22.3996 56.3733L23.8223 57.8531L25.3046 56.4328L23.8819 54.9529L22.3996 56.3733Z" fill="#8DC63F"/>
<path id="Vector_63" d="M19.4083 59.0672L21.0029 60.726L22.6644 59.1339L21.0697 57.4751L19.4083 59.0672Z" fill="#8DC63F"/>
<path id="Vector_64" d="M16.416 61.843L18.1035 63.5983L19.8617 61.9136L18.1742 60.1583L16.416 61.843Z" fill="#8DC63F"/>
<path id="Vector_65" d="M14.331 64.5116L15.3467 65.5681L16.4049 64.5541L15.3892 63.4975L14.331 64.5116Z" fill="#8DC63F"/>
<path id="Vector_66" d="M11.8535 67.0872L12.667 67.9333L13.5145 67.1212L12.7011 66.2751L11.8535 67.0872Z" fill="#8DC63F"/>
</g>
<g id="Group_14">
<path id="Vector_67" d="M28.9562 56.4026L30.1865 57.3008L31.0862 56.0724L29.8558 55.1742L28.9562 56.4026Z" fill="#8DC63F"/>
<path id="Vector_68" d="M26.1071 59.8436L27.7656 61.0543L28.9784 59.3985L27.3199 58.1878L26.1071 59.8436Z" fill="#8DC63F"/>
<path id="Vector_69" d="M23.6303 63.0148L25.4893 64.3719L26.8486 62.516L24.9896 61.1589L23.6303 63.0148Z" fill="#8DC63F"/>
<path id="Vector_70" d="M21.1657 66.2673L23.1328 67.7034L24.5713 65.7395L22.6041 64.3034L21.1657 66.2673Z" fill="#8DC63F"/>
<path id="Vector_71" d="M19.5767 69.2566L20.7607 70.121L21.6266 68.9389L20.4425 68.0745L19.5767 69.2566Z" fill="#8DC63F"/>
<path id="Vector_72" d="M17.5849 72.223L18.5332 72.9153L19.2266 71.9686L18.2783 71.2763L17.5849 72.223Z" fill="#8DC63F"/>
</g>
<g id="Group_15">
<path id="Vector_73" d="M32.5686 58.7354L33.9365 59.4066L34.6089 58.041L33.241 57.3697L32.5686 58.7354Z" fill="#8DC63F"/>
<path id="Vector_74" d="M30.3622 62.6181L32.2061 63.5229L33.1124 61.6821L31.2685 60.7772L30.3622 62.6181Z" fill="#8DC63F"/>
<path id="Vector_75" d="M28.4742 66.171L30.541 67.1852L31.5569 65.1218L29.4901 64.1076L28.4742 66.171Z" fill="#8DC63F"/>
<path id="Vector_76" d="M26.6128 69.8009L28.7998 70.8741L29.8748 68.6907L27.6878 67.6175L26.6128 69.8009Z" fill="#8DC63F"/>
<path id="Vector_77" d="M25.5674 73.0206L26.8838 73.6666L27.5308 72.3524L26.2144 71.7064L25.5674 73.0206Z" fill="#8DC63F"/>
<path id="Vector_78" d="M24.1225 76.2871L25.1768 76.8044L25.695 75.7519L24.6407 75.2345L24.1225 76.2871Z" fill="#8DC63F"/>
</g>
<g id="Group_16">
<path id="Vector_79" d="M36.5332 60.4065L37.9971 60.8304L38.4217 59.369L36.9578 58.9451L36.5332 60.4065Z" fill="#8DC63F"/>
<path id="Vector_80" d="M35.0346 64.6129L37.0078 65.1843L37.5802 63.2143L35.6069 62.6429L35.0346 64.6129Z" fill="#8DC63F"/>
<path id="Vector_81" d="M33.7941 68.4387L36.0059 69.0792L36.6474 66.8711L34.4356 66.2306L33.7941 68.4387Z" fill="#8DC63F"/>
<path id="Vector_82" d="M32.5921 72.3366L34.9326 73.0144L35.6115 70.6778L33.271 70L32.5921 72.3366Z" fill="#8DC63F"/>
<path id="Vector_83" d="M32.1235 75.6884L33.5322 76.0963L33.9409 74.6899L32.5321 74.2819L32.1235 75.6884Z" fill="#8DC63F"/>
<path id="Vector_84" d="M31.2673 79.1561L32.3955 79.4828L32.7228 78.3564L31.5945 78.0297L31.2673 79.1561Z" fill="#8DC63F"/>
</g>
<g id="Group_17">
<path id="Vector_85" d="M40.7278 61.365L42.2432 61.5287L42.4071 60.0158L40.8918 59.8521L40.7278 61.365Z" fill="#8DC63F"/>
<path id="Vector_86" d="M39.9847 65.7675L42.0273 65.9882L42.2484 63.9488L40.2057 63.7282L39.9847 65.7675Z" fill="#8DC63F"/>
<path id="Vector_87" d="M39.4272 69.7501L41.7168 69.9974L41.9645 67.7116L39.675 67.4643L39.4272 69.7501Z" fill="#8DC63F"/>
<path id="Vector_88" d="M38.9219 73.7974L41.3447 74.0591L41.6069 71.6402L39.1841 71.3785L38.9219 73.7974Z" fill="#8DC63F"/>
<path id="Vector_89" d="M39.0427 77.1796L40.501 77.3372L40.6588 75.8812L39.2005 75.7237L39.0427 77.1796Z" fill="#8DC63F"/>
<path id="Vector_90" d="M38.8038 80.7427L39.9717 80.8689L40.0981 79.7029L38.9301 79.5767L38.8038 80.7427Z" fill="#8DC63F"/>
</g>
<g id="Group_18">
<path id="Vector_91" d="M45.0261 61.582L46.5469 61.4805L46.4452 59.9622L44.9244 60.0636L45.0261 61.582Z" fill="#8DC63F"/>
<path id="Vector_92" d="M45.0594 66.0462L47.1094 65.9094L46.9723 63.8628L44.9223 63.9996L45.0594 66.0462Z" fill="#8DC63F"/>
<path id="Vector_93" d="M45.2032 70.0652L47.501 69.9119L47.3474 67.6178L45.0496 67.7712L45.2032 70.0652Z" fill="#8DC63F"/>
<path id="Vector_94" d="M45.4093 74.1381L47.8408 73.9758L47.6783 71.5483L45.2467 71.7106L45.4093 74.1381Z" fill="#8DC63F"/>
<path id="Vector_95" d="M46.1165 77.4481L47.5801 77.3505L47.4822 75.8893L46.0187 75.987L46.1165 77.4481Z" fill="#8DC63F"/>
<path id="Vector_96" d="M46.5007 80.9986L47.6729 80.9204L47.5945 79.7502L46.4224 79.8284L46.5007 80.9986Z" fill="#8DC63F"/>
</g>
<g id="Group_19">
<path id="Vector_97" d="M49.2953 61.0504L50.7754 60.6868L50.4112 59.2091L48.9311 59.5728L49.2953 61.0504Z" fill="#8DC63F"/>
<path id="Vector_98" d="M50.1045 65.4411L52.0996 64.9509L51.6087 62.9591L49.6136 63.4492L50.1045 65.4411Z" fill="#8DC63F"/>
<path id="Vector_99" d="M50.9454 69.3738L53.1816 68.8245L52.6314 66.5919L50.3951 67.1413L50.9454 69.3738Z" fill="#8DC63F"/>
<path id="Vector_100" d="M51.8563 73.3494L54.2227 72.7681L53.6404 70.4056L51.274 70.9869L51.8563 73.3494Z" fill="#8DC63F"/>
<path id="Vector_101" d="M53.1294 76.4864L54.5537 76.1365L54.2032 74.7145L52.7789 75.0644L53.1294 76.4864Z" fill="#8DC63F"/>
<path id="Vector_102" d="M54.1249 79.9165L55.2656 79.6362L54.9849 78.4974L53.8442 78.7776L54.1249 79.9165Z" fill="#8DC63F"/>
</g>
<g id="Group_20">
<path id="Vector_103" d="M53.4074 59.7869L54.8018 59.1722L54.1861 57.7802L52.7918 58.3949L53.4074 59.7869Z" fill="#8DC63F"/>
<path id="Vector_104" d="M54.9681 63.9704L56.8477 63.1418L56.0177 61.2654L54.1382 62.094L54.9681 63.9704Z" fill="#8DC63F"/>
<path id="Vector_105" d="M56.4802 67.6976L58.5869 66.7689L57.6567 64.6657L55.55 65.5944L56.4802 67.6976Z" fill="#8DC63F"/>
<path id="Vector_106" d="M58.0695 71.4552L60.2988 70.4724L59.3145 68.2468L57.0852 69.2295L58.0695 71.4552Z" fill="#8DC63F"/>
<path id="Vector_107" d="M59.8681 74.3237L61.21 73.7322L60.6175 72.3925L59.2756 72.9841L59.8681 74.3237Z" fill="#8DC63F"/>
<path id="Vector_108" d="M61.4459 77.5287L62.5205 77.0549L62.046 75.982L60.9713 76.4558L61.4459 77.5287Z" fill="#8DC63F"/>
</g>
<g id="Group_21">
<path id="Vector_109" d="M57.2377 57.8291L58.5039 56.9821L57.6555 55.7179L56.3892 56.565L57.2377 57.8291Z" fill="#8DC63F"/>
<path id="Vector_110" d="M59.5031 61.6788L61.21 60.537L60.0663 58.8329L58.3594 59.9747L59.5031 61.6788Z" fill="#8DC63F"/>
<path id="Vector_111" d="M61.6405 65.087L63.5537 63.8071L62.2718 61.8971L60.3586 63.1769L61.6405 65.087Z" fill="#8DC63F"/>
<path id="Vector_112" d="M63.8583 68.5119L65.8828 67.1576L64.5263 65.1364L62.5018 66.4907L63.8583 68.5119Z" fill="#8DC63F"/>
<path id="Vector_113" d="M66.1291 71.0253L67.3477 70.2101L66.5312 68.9935L65.3126 69.8087L66.1291 71.0253Z" fill="#8DC63F"/>
<path id="Vector_114" d="M68.2399 73.9081L69.2158 73.2552L68.5619 72.2809L67.586 72.9338L68.2399 73.9081Z" fill="#8DC63F"/>
</g>
</g>
<g id="Group_22">
<g id="Group_23">
<path id="Vector_115" d="M43.2562 33.8819C45.6775 32.9867 47.3365 31.0572 47.3365 27.9902V27.9357C47.3365 26.1432 46.7651 24.6495 45.7047 23.5913C44.4538 22.3424 42.5769 21.6638 40.1556 21.6638H31.4521V40.6721H35.6404V34.5885H38.9319L43.011 40.6721H47.907L43.2566 33.8819H43.2562ZM43.0925 28.2069C43.0925 29.8099 41.9233 30.8962 39.8828 30.8962H35.64V25.4378H39.8009C41.8415 25.4378 43.0925 26.3623 43.0925 28.1536V28.2069Z" fill="#006B38"/>
<path id="Vector_116" d="M78.6596 21.6638V33.3668L69.7382 21.6638H65.875V40.6721H70.0099V28.587L79.2313 40.6721H82.792V21.6638H78.6596Z" fill="#006B38"/>
<path id="Vector_117" d="M99.9612 33.4225C99.9612 29.2948 97.1648 25.5195 92.2973 25.5195C88.0545 25.5195 84.8047 28.9407 84.8047 33.096V33.1505C84.8047 37.6038 88.0429 40.6725 92.4217 40.6725C95.06 40.6725 98.2621 38.9305 99.3943 36.1038L95.446 36.1482C94.3041 37.2089 93.8644 37.3579 92.4762 37.3579C90.6266 37.3579 88.8954 36.3813 88.4886 34.5072H99.9078C99.9351 34.127 99.9612 33.7473 99.9612 33.4225ZM88.5757 31.7858C88.9006 29.912 90.7253 28.8329 92.4377 28.8329C94.1501 28.8329 96.1164 29.9404 96.362 31.7858H88.5757Z" fill="#006B38"/>
<path id="Vector_118" d="M117.891 26.0083L115.499 34.8609L112.723 25.953H109.162L106.415 34.8349L104.075 26.0083H99.8848L104.374 40.6722H108.072L110.929 31.7382L113.731 40.6722H117.458L122 26.0083H117.891Z" fill="#006B38"/>
<path id="Vector_119" d="M56.5071 37.3511C53.2621 37.6455 52.2607 34.6662 52.2607 34.6662C52.2607 34.6662 51.2697 31.8399 53.2512 30.5681C55.2328 29.2964 58.0638 30.7095 58.0638 30.7095C56.2238 29.155 54.2422 29.4378 54.2422 29.4378C59.1964 27.7422 60.187 32.1227 60.187 32.1227C59.4792 31.4161 57.9221 32.4055 56.0822 33.1121C54.2422 33.8186 52.8268 31.9817 52.8268 31.9817C52.5435 32.5469 52.6021 34.2777 53.959 35.0904C55.3744 35.9384 56.365 35.797 59.3376 34.6662C61.3071 33.9172 62.9032 33.8507 63.7565 33.8911C63.7826 33.6348 63.7962 33.3748 63.7962 33.1121C63.7962 28.9367 60.406 25.552 56.2238 25.552C52.0416 25.552 48.6514 28.9367 48.6514 33.1121C48.6514 37.2874 52.0416 40.6721 56.2238 40.6721C59.5454 40.6721 62.3655 38.536 63.3862 35.5654C61.6666 35.1845 59.1924 37.1076 56.5071 37.3511Z" fill="#8DC63F"/>
</g>
<g id="Group_24">
<path id="Vector_120" d="M31.4521 51.3452L32.4893 50.1047C33.2074 50.6963 33.9597 51.072 34.8717 51.072C35.5898 51.072 36.0227 50.7877 36.0227 50.321V50.2982C36.0227 49.8544 35.7491 49.6268 34.4155 49.2852C32.8082 48.8754 31.7711 48.4316 31.7711 46.8498V46.827C31.7711 45.3818 32.9338 44.4257 34.5639 44.4257C35.7266 44.4257 36.7184 44.7898 37.5277 45.4387L36.6157 46.7589C35.9092 46.2694 35.2139 45.9738 34.5411 45.9738C33.8682 45.9738 33.5152 46.281 33.5152 46.668V46.6908C33.5152 47.2143 33.857 47.3849 35.2364 47.7378C36.8548 48.1588 37.7668 48.7392 37.7668 50.1275V50.1504C37.7668 51.7322 36.5584 52.6198 34.8376 52.6198C33.6295 52.6198 32.4098 52.1988 31.4521 51.3452Z" fill="#006B38"/>
<path id="Vector_121" d="M38.9404 48.5457V48.5229C38.9404 46.2582 40.7298 44.4032 43.1921 44.4032C45.6543 44.4032 47.4208 46.2353 47.4208 48.5001V48.5229C47.4208 50.7876 45.6314 52.6426 43.1692 52.6426C40.707 52.6426 38.9404 50.8105 38.9404 48.5457ZM45.5857 48.5457V48.5229C45.5857 47.1574 44.5826 46.0194 43.1692 46.0194C41.7557 46.0194 40.7756 47.1346 40.7756 48.5001V48.5229C40.7756 49.8884 41.7786 51.0264 43.1921 51.0264C44.6055 51.0264 45.5857 49.9112 45.5857 48.5457Z" fill="#006B38"/>
<path id="Vector_122" d="M48.9824 44.5398H50.7377V50.9126H54.7157V52.5056H48.9824V44.5398Z" fill="#006B38"/>
<path id="Vector_123" d="M58.7736 44.4829H60.3921L63.8116 52.5056H61.9765L61.2471 50.7191H57.8733L57.1439 52.5056H55.3545L58.774 44.4829H58.7736ZM60.6204 49.1714L59.5604 46.5882L58.5004 49.1714H60.6204Z" fill="#006B38"/>
<path id="Vector_124" d="M65.0424 44.5398H68.6898C69.7045 44.5398 70.4908 44.8242 71.0152 45.3477C71.4598 45.7915 71.6993 46.4176 71.6993 47.1686V47.1915C71.6993 48.4772 71.004 49.2852 69.9893 49.6609L71.9384 52.506H69.8866L68.1766 49.9569H66.7973V52.506H65.042V44.5402L65.0424 44.5398ZM68.5758 48.4091C69.4308 48.4091 69.9207 47.9541 69.9207 47.2824V47.2596C69.9207 46.5085 69.3963 46.1216 68.5413 46.1216H66.7973V48.4087H68.5754L68.5758 48.4091Z" fill="#006B38"/>
<path id="Vector_125" d="M76.7021 44.5398H79.962C81.8657 44.5398 83.0168 45.6666 83.0168 47.2936V47.3164C83.0168 49.1598 81.5805 50.1159 79.7911 50.1159H78.4574V52.5056H76.7021V44.5398ZM79.8484 48.557C80.7263 48.557 81.239 48.0334 81.239 47.3509V47.328C81.239 46.543 80.6918 46.122 79.8143 46.122H78.4578V48.5574H79.8484V48.557Z" fill="#006B38"/>
<path id="Vector_126" d="M86.2541 44.4829H87.8725L91.2921 52.5056H89.4569L88.7275 50.7191H85.3538L84.6244 52.5056H82.835L86.2545 44.4829H86.2541ZM88.1004 49.1714L87.0404 46.5882L85.9804 49.1714H88.1004Z" fill="#006B38"/>
<path id="Vector_127" d="M92.5234 44.5398H94.1419L97.8808 49.4446V44.5398H99.6132V52.5056H98.1199L94.2559 47.4414V52.5056H92.5234V44.5398Z" fill="#006B38"/>
<path id="Vector_128" d="M101.527 44.5398H107.546V46.0988H103.271V47.7146H107.033V49.2736H103.271V50.9463H107.603V52.5052H101.527V44.5394V44.5398Z" fill="#006B38"/>
<path id="Vector_129" d="M109.165 44.5398H110.92V50.9126H114.898V52.5056H109.165V44.5398Z" fill="#006B38"/>
<path id="Vector_130" d="M115.673 51.3452L116.71 50.1047C117.428 50.6963 118.18 51.072 119.092 51.072C119.811 51.072 120.243 50.7877 120.243 50.321V50.2982C120.243 49.8544 119.97 49.6268 118.636 49.2852C117.029 48.8754 115.992 48.4316 115.992 46.8498V46.827C115.992 45.3818 117.155 44.4257 118.785 44.4257C119.947 44.4257 120.939 44.7898 121.748 45.4387L120.836 46.7589C120.13 46.2694 119.435 45.9738 118.762 45.9738C118.089 45.9738 117.736 46.281 117.736 46.668V46.6908C117.736 47.2143 118.078 47.3849 119.457 47.7378C121.076 48.1588 121.987 48.7392 121.987 50.1275V50.1504C121.987 51.7322 120.779 52.6198 119.058 52.6198C117.85 52.6198 116.631 52.1988 115.673 51.3452Z" fill="#006B38"/>
</g>
</g>
</g>
</g>
</g>
</g>
</g>
<defs>
<clipPath id="clip0_0_1"><rect width="122" height="81" fill="white"/>

</clipPath>
</defs>
</svg>
