<svg width="239" height="159" viewBox="0 0 239 159" fill="none" xmlns="http://www.w3.org/2000/svg">

<g id="Home - ReNew - Home - v2">

<g id="Layer 1">
<g id="Group">
<g id="Group_2">
<g id="Group_3">
<path id="Vector" d="M60.7229 31.5019L58.2422 33.1611L59.9041 35.6378L62.3848 33.9785L60.7229 31.5019Z" fill="white"/>
<path id="Vector_2" d="M56.2882 23.9597L52.9443 26.1963L55.1846 29.5347L58.5285 27.2982L56.2882 23.9597Z" fill="white"/>
<path id="Vector_3" d="M52.1007 17.2821L48.3525 19.7891L50.8636 23.531L54.6117 21.0241L52.1007 17.2821Z" fill="white"/>
<path id="Vector_4" d="M47.7553 10.5718L43.7891 13.2246L46.4462 17.1843L50.4124 14.5315L47.7553 10.5718Z" fill="white"/>
<path id="Vector_5" d="M43.3072 5.64837L40.9199 7.24512L42.5193 9.62851L44.9066 8.03176L43.3072 5.64837Z" fill="white"/>
<path id="Vector_6" d="M39.1717 0.000501669L37.2598 1.2793L38.5407 3.1881L40.4526 1.9093L39.1717 0.000501669Z" fill="white"/>
</g>
<g id="Group_4">
<path id="Vector_7" d="M54.0021 36.5785L51.8477 38.6426L53.9151 40.7935L56.0695 38.7294L54.0021 36.5785Z" fill="white"/>
<path id="Vector_8" d="M48.3221 29.9198L45.418 32.7021L48.2048 35.6015L51.1089 32.8192L48.3221 29.9198Z" fill="white"/>
<path id="Vector_9" d="M43.0364 24.0708L39.7812 27.1895L42.905 30.4393L46.1601 27.3206L43.0364 24.0708Z" fill="white"/>
<path id="Vector_10" d="M37.59 18.2155L34.1455 21.5156L37.451 24.9545L40.8956 21.6544L37.59 18.2155Z" fill="white"/>
<path id="Vector_11" d="M32.3526 14.1377L30.2793 16.124L32.2689 18.1939L34.3422 16.2076L32.3526 14.1377Z" fill="white"/>
<path id="Vector_12" d="M27.2982 9.29199L25.6377 10.8828L27.2311 12.5406L28.8916 10.9497L27.2982 9.29199Z" fill="white"/>
</g>
<g id="Group_5">
<path id="Vector_13" d="M48.2646 42.7432L46.502 45.1494L48.9121 46.9092L50.6747 44.503L48.2646 42.7432Z" fill="white"/>
<path id="Vector_14" d="M41.5118 37.1715L39.1357 40.415L42.3846 42.7872L44.7606 39.5437L41.5118 37.1715Z" fill="white"/>
<path id="Vector_15" d="M35.2892 32.3263L32.626 35.9619L36.2675 38.6208L38.9308 34.9852L35.2892 32.3263Z" fill="white"/>
<path id="Vector_16" d="M28.9071 27.5054L26.0889 31.3525L29.9423 34.1661L32.7605 30.319L28.9071 27.5054Z" fill="white"/>
<path id="Vector_17" d="M23.0401 24.3973L21.3438 26.7129L23.6632 28.4064L25.3595 26.0908L23.0401 24.3973Z" fill="white"/>
<path id="Vector_18" d="M17.2199 20.5019L15.8613 22.3564L17.7189 23.7128L19.0774 21.8582L17.2199 20.5019Z" fill="white"/>
</g>
<g id="Group_6">
<path id="Vector_19" d="M43.6875 49.8101L42.3701 52.4854L45.0497 53.8006L46.3671 51.1253L43.6875 49.8101Z" fill="white"/>
<path id="Vector_20" d="M36.0678 45.4925L34.292 49.0986L37.9041 50.8715L39.6799 47.2654L36.0678 45.4925Z" fill="white"/>
<path id="Vector_21" d="M29.0979 41.8007L27.1074 45.8428L31.1561 47.83L33.1465 43.7879L29.0979 41.8007Z" fill="white"/>
<path id="Vector_22" d="M21.9734 38.1593L19.8672 42.4365L24.1514 44.5393L26.2577 40.2621L21.9734 38.1593Z" fill="white"/>
<path id="Vector_23" d="M15.6555 36.1149L14.3877 38.6895L16.9664 39.9552L18.2342 37.3806L15.6555 36.1149Z" fill="white"/>
<path id="Vector_24" d="M9.2458 33.2887L8.23047 35.3506L10.2957 36.3643L11.311 34.3024L9.2458 33.2887Z" fill="white"/>
</g>
<g id="Group_7">
<path id="Vector_25" d="M40.406 57.5588L39.5742 60.4219L42.4419 61.2523L43.2738 58.3893L40.406 57.5588Z" fill="white"/>
<path id="Vector_26" d="M32.1548 54.6339L31.0332 58.4932L34.8988 59.6129L36.0203 55.7537L32.1548 54.6339Z" fill="white"/>
<path id="Vector_27" d="M24.6458 52.2065L23.3887 56.5322L27.7215 57.7873L28.9786 53.4616L24.6458 52.2065Z" fill="white"/>
<path id="Vector_28" d="M16.9983 49.8552L15.668 54.4326L20.2529 55.7607L21.5832 51.1833L16.9983 49.8552Z" fill="white"/>
<path id="Vector_29" d="M10.4199 48.9382L9.61914 51.6934L12.3788 52.4928L13.1796 49.7376L10.4199 48.9382Z" fill="white"/>
<path id="Vector_30" d="M3.61589 47.2651L2.97461 49.4717L5.18479 50.1119L5.82608 47.9053L3.61589 47.2651Z" fill="white"/>
</g>
<g id="Group_8">
<path id="Vector_31" d="M38.5243 65.7618L38.2031 68.7256L41.1717 69.0463L41.4929 66.0825L38.5243 65.7618Z" fill="white"/>
<path id="Vector_32" d="M29.8871 64.3077L29.4541 68.3027L33.4557 68.735L33.8887 64.7399L29.8871 64.3077Z" fill="white"/>
<path id="Vector_33" d="M22.0713 63.2183L21.5859 67.6963L26.0713 68.1808L26.5566 63.7028L22.0713 63.2183Z" fill="white"/>
<path id="Vector_34" d="M14.1321 62.2332L13.6182 66.9717L18.3644 67.4848L18.8784 62.7463L14.1321 62.2332Z" fill="white"/>
<path id="Vector_35" d="M7.49391 62.4721L7.18457 65.3242L10.0414 65.6331L10.3507 62.7809L7.49391 62.4721Z" fill="white"/>
<path id="Vector_36" d="M0.502627 62.0029L0.254883 64.2871L2.54284 64.5344L2.79059 62.2502L0.502627 62.0029Z" fill="white"/>
</g>
<g id="Group_9">
<path id="Vector_37" d="M38.0997 74.1692L38.2988 77.1436L41.2781 76.9447L41.0789 73.9703L38.0997 74.1692Z" fill="white"/>
<path id="Vector_38" d="M29.3399 74.2337L29.6084 78.2432L33.6244 77.9751L33.356 73.9657L29.3399 74.2337Z" fill="white"/>
<path id="Vector_39" d="M21.454 74.5167L21.7549 79.0107L26.2563 78.7103L25.9554 74.2162L21.454 74.5167Z" fill="white"/>
<path id="Vector_40" d="M13.4619 74.9173L13.7803 79.6729L18.5437 79.355L18.2252 74.5994L13.4619 74.9173Z" fill="white"/>
<path id="Vector_41" d="M6.96752 76.3026L7.15918 79.165L10.0263 78.9737L9.83465 76.1113L6.96752 76.3026Z" fill="white"/>
<path id="Vector_42" d="M-0.000176097 77.0542L0.15332 79.3467L2.44953 79.1934L2.29604 76.901L-0.000176097 77.0542Z" fill="white"/>
</g>
<g id="Group_10">
<path id="Vector_43" d="M39.143 82.5184L39.8564 85.4131L42.7559 84.7008L42.0424 81.8061L39.143 82.5184Z" fill="white"/>
<path id="Vector_44" d="M30.5285 84.1009L31.4902 88.0029L35.3986 87.0427L34.4369 83.1407L30.5285 84.1009Z" fill="white"/>
<path id="Vector_45" d="M22.8107 85.7465L23.8887 90.1201L28.2695 89.0439L27.1915 84.6702L22.8107 85.7465Z" fill="white"/>
<path id="Vector_46" d="M15.0097 87.5271L16.1504 92.1553L20.7861 91.0164L19.6454 86.3883L15.0097 87.5271Z" fill="white"/>
<path id="Vector_47" d="M8.85439 90.017L9.54102 92.8027L12.3313 92.1172L11.6447 89.3315L8.85439 90.017Z" fill="white"/>
<path id="Vector_48" d="M2.12393 91.9643L2.67383 94.1953L4.9085 93.6463L4.35861 91.4153L2.12393 91.9643Z" fill="white"/>
</g>
<g id="Group_11">
<path id="Vector_49" d="M41.623 90.565L42.8291 93.292L45.5606 92.0878L44.3545 89.3608L41.623 90.565Z" fill="white"/>
<path id="Vector_50" d="M33.4132 93.615L35.0391 97.291L38.7211 95.6678L37.0952 91.9919L33.4132 93.615Z" fill="white"/>
<path id="Vector_51" d="M26.0995 96.575L27.9219 100.695L32.0489 98.8759L30.2266 94.7556L26.0995 96.575Z" fill="white"/>
<path id="Vector_52" d="M18.7269 99.6809L20.6553 104.041L25.0225 102.116L23.0941 97.7557L18.7269 99.6809Z" fill="white"/>
<path id="Vector_53" d="M13.099 103.2L14.2598 105.824L16.8884 104.665L15.7277 102.041L13.099 103.2Z" fill="white"/>
<path id="Vector_54" d="M6.80967 106.284L7.73926 108.386L9.84449 107.458L8.9149 105.356L6.80967 106.284Z" fill="white"/>
</g>
<g id="Group_12">
<path id="Vector_55" d="M45.4639 98.0528L47.126 100.529L49.6065 98.8699L47.9444 96.3934L45.4639 98.0528Z" fill="white"/>
<path id="Vector_56" d="M37.9099 102.483L40.1504 105.821L43.4941 103.584L41.2536 100.246L37.9099 102.483Z" fill="white"/>
<path id="Vector_57" d="M31.2231 106.663L33.7344 110.405L37.4823 107.898L34.971 104.156L31.2231 106.663Z" fill="white"/>
<path id="Vector_58" d="M24.5017 111L27.1592 114.96L31.1252 112.307L28.4677 108.347L24.5017 111Z" fill="white"/>
<path id="Vector_59" d="M19.5704 115.443L21.1699 117.826L23.5571 116.229L21.9576 113.846L19.5704 115.443Z" fill="white"/>
<path id="Vector_60" d="M13.9133 119.569L15.1943 121.478L17.1062 120.199L15.8251 118.29L13.9133 119.569Z" fill="white"/>
</g>
<g id="Group_13">
<path id="Vector_61" d="M50.5496 104.765L52.6172 106.916L54.7714 104.852L52.7038 102.701L50.5496 104.765Z" fill="white"/>
<path id="Vector_62" d="M43.8818 110.437L46.6689 113.336L49.5728 110.553L46.7857 107.654L43.8818 110.437Z" fill="white"/>
<path id="Vector_63" d="M38.0225 115.712L41.1465 118.962L44.4014 115.843L41.2774 112.593L38.0225 115.712Z" fill="white"/>
<path id="Vector_64" d="M32.1591 121.15L35.4648 124.589L38.9091 121.289L35.6034 117.85L32.1591 121.15Z" fill="white"/>
<path id="Vector_65" d="M28.0747 126.379L30.0645 128.449L32.1376 126.463L30.1478 124.393L28.0747 126.379Z" fill="white"/>
<path id="Vector_66" d="M23.2219 131.425L24.8154 133.083L26.4758 131.492L24.8822 129.834L23.2219 131.425Z" fill="white"/>
</g>
<g id="Group_14">
<path id="Vector_67" d="M56.7255 110.493L59.1357 112.253L60.8982 109.847L58.4879 108.087L56.7255 110.493Z" fill="white"/>
<path id="Vector_68" d="M51.1445 117.233L54.3936 119.604L56.7693 116.361L53.5203 113.989L51.1445 117.233Z" fill="white"/>
<path id="Vector_69" d="M46.2928 123.447L49.9346 126.105L52.5975 122.47L48.9558 119.811L46.2928 123.447Z" fill="white"/>
<path id="Vector_70" d="M41.4647 129.818L45.3184 132.631L48.1363 128.784L44.2826 125.97L41.4647 129.818Z" fill="white"/>
<path id="Vector_71" d="M38.3514 135.675L40.6709 137.368L42.367 135.052L40.0475 133.359L38.3514 135.675Z" fill="white"/>
<path id="Vector_72" d="M34.449 141.486L36.3066 142.842L37.665 140.987L35.8074 139.631L34.449 141.486Z" fill="white"/>
</g>
<g id="Group_15">
<path id="Vector_73" d="M63.8037 115.065L66.4834 116.38L67.8006 113.705L65.1209 112.39L63.8037 115.065Z" fill="white"/>
<path id="Vector_74" d="M59.4796 122.671L63.0918 124.443L64.8673 120.837L61.2551 119.064L59.4796 122.671Z" fill="white"/>
<path id="Vector_75" d="M55.7822 129.63L59.8311 131.617L61.8212 127.575L57.7724 125.588L55.7822 129.63Z" fill="white"/>
<path id="Vector_76" d="M52.1345 136.743L56.4189 138.846L58.5249 134.568L54.2405 132.466L52.1345 136.743Z" fill="white"/>
<path id="Vector_77" d="M50.0882 143.049L52.667 144.314L53.9346 141.74L51.3557 140.474L50.0882 143.049Z" fill="white"/>
<path id="Vector_78" d="M47.256 149.447L49.3213 150.461L50.3365 148.399L48.2711 147.385L47.256 149.447Z" fill="white"/>
</g>
<g id="Group_16">
<path id="Vector_79" d="M71.5698 118.338L74.4375 119.169L75.2693 116.306L72.4016 115.475L71.5698 118.338Z" fill="white"/>
<path id="Vector_80" d="M68.6344 126.577L72.5 127.696L73.6213 123.837L69.7556 122.718L68.6344 126.577Z" fill="white"/>
<path id="Vector_81" d="M66.2032 134.071L70.5361 135.326L71.793 131L67.4601 129.746L66.2032 134.071Z" fill="white"/>
<path id="Vector_82" d="M63.8486 141.708L68.4336 143.036L69.7635 138.459L65.1785 137.131L63.8486 141.708Z" fill="white"/>
<path id="Vector_83" d="M62.9297 148.275L65.6895 149.074L66.49 146.319L63.7302 145.52L62.9297 148.275Z" fill="white"/>
<path id="Vector_84" d="M61.2536 155.069L63.4639 155.709L64.105 153.502L61.8947 152.862L61.2536 155.069Z" fill="white"/>
</g>
<g id="Group_17">
<path id="Vector_85" d="M79.7863 120.216L82.7549 120.537L83.0761 117.573L80.1075 117.253L79.7863 120.216Z" fill="white"/>
<path id="Vector_86" d="M78.3294 128.84L82.3311 129.272L82.764 125.277L78.7624 124.845L78.3294 128.84Z" fill="white"/>
<path id="Vector_87" d="M77.2383 136.643L81.7236 137.128L82.209 132.65L77.7236 132.165L77.2383 136.643Z" fill="white"/>
<path id="Vector_88" d="M76.2478 144.57L80.9941 145.083L81.5077 140.344L76.7614 139.832L76.2478 144.57Z" fill="white"/>
<path id="Vector_89" d="M76.4849 151.198L79.3418 151.507L79.6509 148.655L76.7941 148.346L76.4849 151.198Z" fill="white"/>
<path id="Vector_90" d="M76.0167 158.178L78.3047 158.425L78.5523 156.141L76.2643 155.893L76.0167 158.178Z" fill="white"/>
</g>
<g id="Group_18">
<path id="Vector_91" d="M88.2053 120.64L91.1846 120.441L90.9854 117.467L88.0061 117.666L88.2053 120.64Z" fill="white"/>
<path id="Vector_92" d="M88.2701 129.385L92.2861 129.117L92.0177 125.108L88.0017 125.376L88.2701 129.385Z" fill="white"/>
<path id="Vector_93" d="M88.5532 137.257L93.0547 136.957L92.7538 132.463L88.2523 132.763L88.5532 137.257Z" fill="white"/>
<path id="Vector_94" d="M88.9563 145.237L93.7197 144.919L93.4013 140.163L88.6379 140.481L88.9563 145.237Z" fill="white"/>
<path id="Vector_95" d="M90.3428 151.723L93.21 151.531L93.0183 148.669L90.1512 148.86L90.3428 151.723Z" fill="white"/>
<path id="Vector_96" d="M91.0954 158.677L93.3916 158.523L93.2381 156.231L90.9419 156.384L91.0954 158.677Z" fill="white"/>
</g>
<g id="Group_19">
<path id="Vector_97" d="M96.5693 119.598L99.4688 118.886L98.7553 115.991L95.8558 116.703L96.5693 119.598Z" fill="white"/>
<path id="Vector_98" d="M98.1551 128.2L102.063 127.24L101.102 123.338L97.1933 124.298L98.1551 128.2Z" fill="white"/>
<path id="Vector_99" d="M99.8028 135.903L104.184 134.827L103.106 130.454L98.7248 131.53L99.8028 135.903Z" fill="white"/>
<path id="Vector_100" d="M101.588 143.692L106.224 142.553L105.083 137.925L100.447 139.063L101.588 143.692Z" fill="white"/>
<path id="Vector_101" d="M104.082 149.839L106.872 149.153L106.185 146.368L103.395 147.053L104.082 149.839Z" fill="white"/>
<path id="Vector_102" d="M106.032 156.556L108.267 156.007L107.717 153.776L105.482 154.325L106.032 156.556Z" fill="white"/>
</g>
<g id="Group_20">
<path id="Vector_103" d="M104.627 117.124L107.358 115.92L106.152 113.193L103.421 114.397L104.627 117.124Z" fill="white"/>
<path id="Vector_104" d="M107.684 125.319L111.366 123.696L109.74 120.02L106.058 121.643L107.684 125.319Z" fill="white"/>
<path id="Vector_105" d="M110.646 132.623L114.773 130.804L112.951 126.683L108.824 128.503L110.646 132.623Z" fill="white"/>
<path id="Vector_106" d="M113.76 139.984L118.127 138.059L116.199 133.699L111.831 135.624L113.76 139.984Z" fill="white"/>
<path id="Vector_107" d="M117.283 145.603L119.912 144.444L118.751 141.82L116.123 142.979L117.283 145.603Z" fill="white"/>
<path id="Vector_108" d="M120.373 151.881L122.479 150.953L121.549 148.851L119.444 149.779L120.373 151.881Z" fill="white"/>
</g>
<g id="Group_21">
<path id="Vector_109" d="M112.131 113.287L114.611 111.628L112.949 109.151L110.469 110.811L112.131 113.287Z" fill="white"/>
<path id="Vector_110" d="M116.567 120.831L119.911 118.594L117.671 115.255L114.327 117.492L116.567 120.831Z" fill="white"/>
<path id="Vector_111" d="M120.755 127.506L124.503 124.999L121.992 121.257L118.244 123.764L120.755 127.506Z" fill="white"/>
<path id="Vector_112" d="M125.099 134.217L129.065 131.563L126.408 127.604L122.442 130.257L125.099 134.217Z" fill="white"/>
<path id="Vector_113" d="M129.547 139.14L131.935 137.543L130.335 135.16L127.948 136.757L129.547 139.14Z" fill="white"/>
<path id="Vector_114" d="M133.683 144.787L135.595 143.508L134.314 141.599L132.402 142.878L133.683 144.787Z" fill="white"/>
</g>
</g>
<g id="Group_22">
<g id="Group_23">
<path id="Vector_115" d="M84.7384 66.3748C89.4818 64.6211 92.7318 60.8412 92.7318 54.8328V54.7261C92.7318 51.2146 91.6126 48.2885 89.5353 46.2154C87.0846 43.7687 83.4078 42.4395 78.6644 42.4395H61.6143V79.6769H69.8191V67.759H76.2672L84.2582 79.6769H93.8495L84.7392 66.3748H84.7384ZM84.4178 55.2574C84.4178 58.3977 82.1274 60.5258 78.13 60.5258H69.8183V49.8328H77.9696C81.9671 49.8328 84.4178 51.6439 84.4178 55.153V55.2574Z" fill="white"/>
<path id="Vector_116" d="M154.095 42.4395V65.3657L136.618 42.4395H129.05V79.6769H137.15V56.002L155.215 79.6769H162.19V42.4395H154.095Z" fill="white"/>
<path id="Vector_117" d="M195.826 65.4751C195.826 57.3889 190.347 49.9932 180.812 49.9932C172.5 49.9932 166.134 56.6952 166.134 64.8356V64.9423C166.134 73.6665 172.477 79.678 181.056 79.678C186.224 79.678 192.497 76.2654 194.715 70.7278L186.98 70.8149C184.743 72.8928 183.882 73.1847 181.162 73.1847C177.539 73.1847 174.148 71.2716 173.351 67.6H195.721C195.774 66.8554 195.826 66.1115 195.826 65.4751ZM173.521 62.2689C174.158 58.5981 177.732 56.4841 181.087 56.4841C184.442 56.4841 188.294 58.6538 188.775 62.2689H173.521Z" fill="white"/>
<path id="Vector_118" d="M230.95 50.9501L226.263 68.2925L220.825 50.8418H213.849L208.467 68.2415L203.884 50.9501H195.675L204.469 79.6768H211.714L217.31 62.1751L222.8 79.6768H230.101L238.999 50.9501H230.95Z" fill="white"/>
<path id="Vector_119" d="M110.697 73.1703C104.34 73.747 102.378 67.9105 102.378 67.9105C102.378 67.9105 100.437 62.3737 104.319 59.8823C108.201 57.3909 113.747 60.1593 113.747 60.1593C110.142 57.1139 106.26 57.6679 106.26 57.6679C115.965 54.3463 117.906 62.9277 117.906 62.9277C116.52 61.5435 113.469 63.4817 109.865 64.8659C106.26 66.2501 103.487 62.6515 103.487 62.6515C102.932 63.7587 103.047 67.1493 105.705 68.7415C108.478 70.4027 110.419 70.1257 116.242 67.9105C120.1 66.4431 123.227 66.3129 124.899 66.3921C124.95 65.8899 124.977 65.3807 124.977 64.8659C124.977 56.6863 118.335 50.0557 110.142 50.0557C101.949 50.0557 95.3076 56.6863 95.3076 64.8659C95.3076 73.0455 101.949 79.6761 110.142 79.6761C116.649 79.6761 122.174 75.4914 124.173 69.6721C120.805 68.9259 115.958 72.6932 110.697 73.1703Z" fill="white"/>
</g>
<g id="Group_24">
<path id="Vector_120" d="M61.6143 100.587L63.646 98.1566C65.0529 99.3156 66.5266 100.052 68.3131 100.052C69.72 100.052 70.5681 99.4945 70.5681 98.5803V98.5356C70.5681 97.6662 70.0321 97.2204 67.4195 96.5511C64.2709 95.7484 62.2391 94.8789 62.2391 91.7802V91.7355C62.2391 88.9043 64.5169 87.0312 67.7103 87.0312C69.988 87.0312 71.931 87.7445 73.5163 89.0157L71.7298 91.6021C70.3457 90.6432 68.9836 90.0641 67.6655 90.0641C66.3474 90.0641 65.6557 90.6659 65.6557 91.4239V91.4687C65.6557 92.4943 66.3254 92.8285 69.0276 93.5198C72.1982 94.3446 73.9847 95.4816 73.9847 98.2013V98.246C73.9847 101.345 71.6174 103.084 68.2463 103.084C65.8797 103.084 63.4904 102.259 61.6143 100.587Z" fill="white"/>
<path id="Vector_121" d="M76.2842 95.1016V95.0569C76.2842 90.6202 79.7896 86.9863 84.6132 86.9863C89.4367 86.9863 92.8973 90.5755 92.8973 95.0121V95.0569C92.8973 99.4935 89.3919 103.127 84.5684 103.127C79.7448 103.127 76.2842 99.5382 76.2842 95.1016ZM89.3023 95.1016V95.0569C89.3023 92.3819 87.3374 90.1526 84.5684 90.1526C81.7994 90.1526 79.8792 92.3371 79.8792 95.0121V95.0569C79.8792 97.7319 81.8442 99.9612 84.6132 99.9612C87.3822 99.9612 89.3023 97.7766 89.3023 95.1016Z" fill="white"/>
<path id="Vector_122" d="M95.9561 87.2549H99.3947V99.7393H107.188V102.86H95.9561V87.2549Z" fill="white"/>
<path id="Vector_123" d="M115.137 87.1436H118.307L125.006 102.86H121.411L119.982 99.3604H113.373L111.944 102.86H108.438L115.137 87.1436H115.137ZM118.754 96.3284L116.678 91.2679L114.601 96.3284H118.754Z" fill="white"/>
<path id="Vector_124" d="M127.418 87.2549H134.563C136.551 87.2549 138.091 87.812 139.119 88.8376C139.989 89.707 140.459 90.9335 140.459 92.4048V92.4495C140.459 94.9684 139.097 96.5511 137.109 97.2871L140.927 102.861H136.908L133.558 97.867H130.856V102.861H127.417V87.2557L127.418 87.2549ZM134.34 94.835C136.015 94.835 136.974 93.9436 136.974 92.6277V92.5829C136.974 91.1116 135.947 90.3536 134.272 90.3536H130.856V94.8342H134.339L134.34 94.835Z" fill="white"/>
<path id="Vector_125" d="M150.26 87.2549H156.646C160.375 87.2549 162.63 89.4622 162.63 92.6496V92.6944C162.63 96.3055 159.816 98.1785 156.311 98.1785H153.698V102.86H150.26V87.2549ZM156.423 95.1245C158.143 95.1245 159.148 94.099 159.148 92.7618V92.7171C159.148 91.1791 158.076 90.3544 156.357 90.3544H153.699V95.1253H156.423V95.1245Z" fill="white"/>
<path id="Vector_126" d="M168.972 87.1436H172.143L178.842 102.86H175.247L173.818 99.3604H167.209L165.78 102.86H162.274L168.973 87.1436H168.972ZM172.59 96.3284L170.513 91.2679L168.436 96.3284H172.59Z" fill="white"/>
<path id="Vector_127" d="M181.253 87.2549H184.424L191.748 96.8634V87.2549H195.142V102.86H192.217L184.647 92.9392V102.86H181.253V87.2549Z" fill="white"/>
<path id="Vector_128" d="M198.893 87.2537H210.683V90.3077H202.309V93.4732H209.678V96.5272H202.309V99.804H210.795V102.858H198.893V87.2529V87.2537Z" fill="white"/>
<path id="Vector_129" d="M213.854 87.2549H217.292V99.7393H225.085V102.86H213.854V87.2549Z" fill="white"/>
<path id="Vector_130" d="M226.604 100.587L228.635 98.1566C230.042 99.3156 231.516 100.052 233.302 100.052C234.709 100.052 235.557 99.4945 235.557 98.5803V98.5356C235.557 97.6662 235.021 97.2204 232.409 96.5511C229.26 95.7484 227.228 94.8789 227.228 91.7802V91.7355C227.228 88.9043 229.506 87.0312 232.7 87.0312C234.977 87.0312 236.92 87.7445 238.506 89.0157L236.719 91.6021C235.335 90.6432 233.973 90.0641 232.655 90.0641C231.337 90.0641 230.645 90.6659 230.645 91.4239V91.4687C230.645 92.4943 231.315 92.8285 234.017 93.5198C237.187 94.3446 238.974 95.4816 238.974 98.2013V98.246C238.974 101.345 236.607 103.084 233.236 103.084C230.869 103.084 228.48 102.259 226.604 100.587Z" fill="white"/>
</g>
</g>
</g>
</g>
</g>
</svg>
