<svg preserveAspectRatio="none" overflow="visible" style="display: block;" width="33" height="33" viewBox="0 0 33 33" fill="none" xmlns="http://www.w3.org/2000/svg">
<g id="captive_portal">
<mask id="mask0_0_168" style="mask-type:alpha" maskUnits="userSpaceOnUse" x="0" y="0" width="33" height="33">
<rect id="Bounding box" width="33" height="33" fill="#D9D9D9"/>
</mask>
<g mask="url(#mask0_0_168)">
<path id="captive_portal_2" d="M28.8063 30.7656L24.75 26.7094V29.7688H22V22H29.7688V24.75H26.675L30.7313 28.8063L28.8063 30.7656ZM16.5 30.25C14.5979 30.25 12.8104 29.8891 11.1375 29.1672C9.4646 28.4453 8.0094 27.4656 6.7719 26.2281C5.5344 24.9906 4.55471 23.5354 3.83283 21.8625C3.11096 20.1896 2.75002 18.4021 2.75002 16.5C2.75002 14.5979 3.11096 12.8104 3.83283 11.1375C4.55471 9.46459 5.5344 8.00938 6.7719 6.77188C8.0094 5.53438 9.4646 4.55469 11.1375 3.83282C12.8104 3.11094 14.5979 2.75001 16.5 2.75001C18.4021 2.75001 20.1896 3.11094 21.8625 3.83282C23.5354 4.55469 24.9906 5.53438 26.2281 6.77188C27.4656 8.00938 28.4453 9.46459 29.1672 11.1375C29.8891 12.8104 30.25 14.5979 30.25 16.5C30.25 16.9583 30.2271 17.4167 30.1813 17.875C30.1354 18.3333 30.0667 18.7917 29.975 19.25H27.1563C27.2709 18.7917 27.3568 18.3333 27.4141 17.875C27.4714 17.4167 27.5 16.9583 27.5 16.5C27.5 16.0417 27.4714 15.5833 27.4141 15.125C27.3568 14.6667 27.2709 14.2083 27.1563 13.75H22.4813C22.55 14.2083 22.6016 14.6667 22.636 15.125C22.6703 15.5833 22.6875 16.0417 22.6875 16.5C22.6875 16.9583 22.6703 17.4167 22.636 17.875C22.6016 18.3333 22.55 18.7917 22.4813 19.25H19.7313C19.8 18.7917 19.8516 18.3333 19.886 17.875C19.9203 17.4167 19.9375 16.9583 19.9375 16.5C19.9375 16.0417 19.9203 15.5833 19.886 15.125C19.8516 14.6667 19.8 14.2083 19.7313 13.75H13.2688C13.2 14.2083 13.1485 14.6667 13.1141 15.125C13.0797 15.5833 13.0625 16.0417 13.0625 16.5C13.0625 16.9583 13.0797 17.4167 13.1141 17.875C13.1485 18.3333 13.2 18.7917 13.2688 19.25H17.875V22H13.8875C14.1625 22.9854 14.5177 23.9307 14.9531 24.8359C15.3886 25.7412 15.9042 26.6063 16.5 27.4313C16.9584 27.4313 17.4167 27.4026 17.875 27.3453C18.3334 27.288 18.7917 27.2365 19.25 27.1906V30.0094C18.7917 30.0552 18.3334 30.1068 17.875 30.1641C17.4167 30.2214 16.9584 30.25 16.5 30.25ZM5.84377 19.25H10.5188C10.45 18.7917 10.3985 18.3333 10.3641 17.875C10.3297 17.4167 10.3125 16.9583 10.3125 16.5C10.3125 16.0417 10.3297 15.5833 10.3641 15.125C10.3985 14.6667 10.45 14.2083 10.5188 13.75H5.84377C5.72919 14.2083 5.64325 14.6667 5.58596 15.125C5.52867 15.5833 5.50002 16.0417 5.50002 16.5C5.50002 16.9583 5.52867 17.4167 5.58596 17.875C5.64325 18.3333 5.72919 18.7917 5.84377 19.25ZM7.01252 11H11.0688C11.275 10.1521 11.5328 9.32136 11.8422 8.50782C12.1516 7.69428 12.5125 6.89792 12.925 6.11876C11.6646 6.53126 10.5302 7.15573 9.5219 7.99219C8.51356 8.82865 7.67711 9.83126 7.01252 11ZM12.925 26.8813C12.5125 26.1021 12.1516 25.3057 11.8422 24.4922C11.5328 23.6787 11.275 22.8479 11.0688 22H7.01252C7.67711 23.1688 8.51356 24.1714 9.5219 25.0078C10.5302 25.8443 11.6646 26.4688 12.925 26.8813ZM13.8875 11H19.1125C18.8375 10.0146 18.4823 9.06928 18.0469 8.16407C17.6115 7.25886 17.0959 6.39376 16.5 5.56876C15.9042 6.39376 15.3886 7.25886 14.9531 8.16407C14.5177 9.06928 14.1625 10.0146 13.8875 11ZM21.9313 11H25.9875C25.3229 9.83126 24.4865 8.82865 23.4781 7.99219C22.4698 7.15573 21.3354 6.53126 20.075 6.11876C20.4875 6.89792 20.8485 7.69428 21.1578 8.50782C21.4672 9.32136 21.725 10.1521 21.9313 11Z" fill="#006B38"/>
</g>
</g>
</svg>
