<svg width="158" height="122" viewBox="0 0 158 122" fill="none" xmlns="http://www.w3.org/2000/svg">

<g id="Home - ReNew - Home - v2">

<path id="path1810" d="M156.327 57.3222C156.57 56.8765 156.806 56.4269 157.046 55.9802C157.325 55.4637 157.589 54.8635 158 54.4341C157.574 54.389 157.091 54.4039 156.676 54.2927C156.313 54.1936 156.064 53.9294 155.686 54.0165C155.254 54.1186 154.888 54.1995 154.447 54.1995C154.105 54.1995 153.909 54.5269 153.558 54.4218C153.219 54.3197 152.489 54.3016 152.538 53.8992C152.577 53.5478 152.685 53.1636 152.613 52.8153L152.306 51.3378C152.243 51.0405 151.754 50.704 151.55 50.4938C150.944 49.8601 150.155 49.3765 149.455 48.8479C148.801 48.3554 148.63 47.4786 147.997 46.944C147.292 46.3464 146.683 45.6317 145.917 45.1182C145.122 44.5836 144.323 44.4935 143.378 44.3674C142.559 44.2593 141.667 44.1667 140.947 44.7222C140.179 45.3139 139.405 45.7553 139.041 46.6983C138.852 47.1848 138.801 47.5631 138.54 48.0256C138.312 48.428 138.132 48.8062 137.958 49.2356C137.768 49.7011 137.543 50.1302 137.306 50.5747C137.186 50.7999 136.733 51.3046 136.487 51.2926C135.557 51.2476 134.647 51.1246 133.723 51.0375C133.057 50.9774 132.949 50.9833 132.381 51.3407C131.904 51.641 132.214 51.866 131.964 52.3015C131.46 53.1874 131.178 53.9894 131.001 54.9954C130.953 55.2657 131.442 55.8605 131.562 56.1638C131.712 56.5392 131.835 56.8453 131.856 57.2477C131.883 57.8213 131.733 58.1249 131.505 58.6624C131.34 59.0468 131.322 59.4851 131.256 59.8965C131.181 60.377 131.064 60.8572 130.965 61.3347C130.887 61.7161 130.35 61.9505 130.049 62.1758C129.341 62.7073 128.51 63.0015 127.688 63.3049C127.024 63.5511 125.965 63.8633 125.253 63.6591C124.353 63.4009 123.57 63.0978 123.138 62.1969C122.76 61.4041 122.393 60.3918 121.697 59.8062C121.247 59.4278 121.031 59.1696 120.749 58.653C120.574 58.3377 120.434 57.8421 120.134 57.6319C119.35 57.0823 118.516 56.7285 117.627 56.3832C117.381 56.2871 117.078 55.6949 116.988 55.4306C116.889 55.1363 116.787 54.4006 116.52 54.2294C115.647 53.6738 114.791 53.1066 113.945 52.512C113.312 52.0706 112.657 51.5988 112.141 51.0222C111.67 50.4937 110.616 49.6018 110.746 48.7699C110.884 47.884 111.148 47.0735 111.352 46.2056C111.478 45.671 111.472 45.2686 111.901 44.9322C112.348 44.5809 112.522 44.5837 113.098 44.5387C113.603 44.4996 113.972 44.3374 114.443 44.1422C114.725 44.028 115.256 44.2086 115.445 43.9504C115.968 43.2416 116.403 42.3313 116.991 41.6916C117.315 41.3403 117.73 40.9953 117.991 40.5989C118.123 40.3977 118.465 39.6259 118.687 39.5719C118.924 39.5118 119.818 39.1421 120.011 39.2622L121.253 40.0464C121.865 40.4338 123.041 40.5144 123.681 40.2141C124.404 39.8748 125.484 39.4724 126.004 38.8358C126.409 38.3433 126.499 38.1696 126.589 37.5389C126.655 37.0494 125.977 37.2146 125.62 37.2386C125.269 37.2627 124.933 36.7189 124.737 36.4486C124.332 35.893 124.5 35.887 124.899 35.3224C125.506 34.4666 124.663 33.7997 124.059 33.2262C123.711 32.8958 123.477 32.5387 123.203 32.1393C122.972 31.797 123.192 31.2775 123.252 30.8871C123.3 30.5687 123.909 30.3015 124.182 30.1574C124.612 29.9292 124.854 29.6257 125.181 29.2624C125.761 28.6227 125.794 27.7069 126.322 27.0793C126.688 26.6468 126.952 26.4996 127.562 26.7309C127.982 26.89 128.255 27.265 128.702 27.3972C129.158 27.5293 129.548 27.2232 129.972 27.3133C130.437 27.4124 130.878 27.4993 131.352 27.5444C132.288 27.6345 132.87 27.1813 133.708 26.881C134.164 26.7189 134.644 26.7097 134.794 26.2352C134.918 25.8539 135.19 25.3462 135.157 24.9408C135.109 24.3732 135.14 24.049 134.797 23.6076C134.554 23.2983 134.332 22.9077 134.023 22.6615C133.252 22.0459 132.49 21.4182 131.691 20.8356C130.188 19.7395 128.573 18.8054 127.066 17.7123C126.826 17.5381 126.163 17.1149 126.115 16.8507C126.061 16.5564 126.601 15.7756 126.727 15.4993C127.081 14.7155 127.432 13.9315 127.804 13.1567C128.183 12.3669 127.928 11.442 127.814 10.6011C127.769 10.2528 127.114 9.68852 126.895 9.41224C126.61 9.04887 126.226 9.31893 125.803 9.42104C125.424 9.51413 125.109 10.0969 125.245 10.4152C125.368 10.7065 125.308 11.2441 125.209 11.5414C124.894 12.4933 124.551 13.1719 123.654 13.6975C123.218 13.9527 122.82 14.0909 122.339 14.2471C122.021 14.3492 121.595 14.1271 121.31 14.3163C121.055 14.4874 120.437 15.0726 120.118 15.1116C119.806 15.1506 119.137 14.7096 118.855 14.5685C118.549 14.4153 117.945 14.4754 117.72 14.7667C117.324 15.2772 117.216 15.3101 117.382 15.9257C117.553 16.5564 116.931 17.8053 116.73 18.4179C116.082 18.1807 116.064 18.1302 115.791 17.4935C115.593 17.0341 115.395 16.5775 115.19 16.121C115.034 15.7697 115.428 15.0846 115.542 14.7333C115.662 14.3639 115.458 13.9738 115.539 13.5684C115.731 12.6105 116.535 12.0488 116.892 11.1689C117.069 10.7335 117.243 10.2951 117.426 9.8627C117.675 9.2771 117.846 9.08174 117.627 8.49314C117.102 8.86252 116.577 9.26157 115.97 9.4838C115.655 9.60092 115.223 9.73343 115.262 10.0938C115.298 10.4301 115.211 10.7511 115.157 11.0845C115.106 11.3848 114.431 11.7844 114.149 11.8986C113.825 12.0307 113.336 12.2171 113.003 12.0129C112.589 11.7607 112.207 11.5199 111.835 11.2106C111.328 10.7871 111.253 10.7844 110.587 10.8234C110.286 10.8415 109.716 11.5923 109.494 11.7965C109.215 12.0548 108.921 12.2467 108.599 12.4569C107.81 12.9765 107.054 13.0998 106.19 13.4511C105.742 13.6313 105.175 14.0005 104.698 14.0576C104.296 14.1056 103.714 13.8746 103.314 13.7995C102.777 13.7004 102.513 13.7246 101.97 13.8418C101.715 13.8958 101.115 13.9404 100.905 13.8113C100.575 13.607 99.8962 13.3642 99.6772 13.0458C99.38 12.6134 99.0798 12.1809 98.7827 11.7484C98.2995 11.0487 98.4135 10.0815 98.5125 9.30373C97.5731 9.58602 96.9158 9.69143 95.9404 9.69143C95.5412 9.69143 95.1394 9.43629 94.7732 9.28614C94.4161 9.13899 94.0049 9.15677 93.6238 9.12073C93.2306 9.0847 92.7743 8.96162 92.7533 8.56822C92.7233 7.92256 92.6541 7.93734 92.1079 7.57697C91.7838 7.36375 91.4179 7.20802 91.0698 7.03384C91.1958 7.09991 91.0542 6.06373 91.0422 6.01268C89.9588 6.28896 88.7648 6.57709 87.8944 7.34588C87.6904 7.52906 86.8438 8.47784 86.8528 8.7301C86.8648 9.05443 87.5338 9.67301 87.7409 9.9583C87.8069 10.0514 88.2601 10.5473 88.215 10.6404C88.065 10.9528 87.9149 11.2678 87.7649 11.5801C87.4617 12.2107 87.4679 12.4421 87.5339 13.1508C87.5759 13.6103 87.6181 14.2049 87.5011 14.6523C87.309 15.3971 87.1617 15.502 86.5615 15.9885C86.1773 16.3008 85.8506 16.5324 85.5925 16.9498C85.3014 17.4213 84.8239 16.9499 84.4547 17.2202C84.3227 17.3163 84.3496 17.7218 84.2566 17.8689C84.1035 18.1061 83.9536 18.3461 83.8035 18.5833C83.5664 18.9557 83.0143 18.9435 82.6001 19.0426C82.1469 19.1537 81.6754 19.2079 81.2132 19.286C80.8621 19.343 80.4814 19.7517 80.1932 19.9529C79.8811 20.1721 79.5807 20.7423 79.3316 21.0456C79.0945 21.3369 78.8098 21.5804 78.5156 21.8116C77.8104 22.3642 77.1019 22.9105 76.4236 23.4961C76.0514 23.8144 75.6854 24.1361 75.3163 24.4604C74.9771 24.7577 74.9079 25.088 74.7518 25.5144C74.6288 25.8507 74.8866 26.2953 74.7846 26.6617C74.6976 26.971 74.6411 27.7157 74.413 27.9409C73.6597 28.6796 72.9809 29.0458 72.0325 29.5263C71.3212 29.8867 70.7275 28.3461 70.3614 28.0248C69.6201 27.3731 68.8842 26.7189 68.155 26.0522C67.5337 25.4847 68.2181 24.295 68.05 23.6193C67.969 23.304 67.5671 22.7427 67.339 22.5055C67.1709 22.3283 67.003 22.1541 66.8349 21.9799C66.7689 21.9139 67.0386 21.6463 67.0776 21.5653C67.1496 21.4181 67.1467 21.0426 67.2968 20.9676C67.4739 20.8775 67.6632 20.7964 67.8343 20.6913C68.2335 20.4421 68.5574 20.3702 68.6415 19.9077C68.7555 19.2861 68.8124 19.0096 68.6232 18.415C68.5001 18.0276 68.5932 17.6286 68.4942 17.2442C68.0801 15.6346 65.7663 14.8387 64.3107 14.5685C63.5754 14.4333 62.2907 14.4664 62.2907 13.4423C62.2907 12.7696 62.3809 12.5895 62.738 12.0129C62.861 11.8117 63.2964 11.1477 63.1823 10.9525C62.8882 10.451 62.7381 10.2981 62.2849 9.96476C61.9157 9.69448 61.5525 9.4483 61.1624 9.21106C60.6431 8.89574 59.7364 7.75155 59.7544 7.08487C59.7664 6.70348 60.2469 6.52327 60.3669 6.1599C60.508 5.72446 60.6608 5.343 60.6788 4.88653C60.7028 4.34598 60.6523 3.96164 60.5351 3.4331C60.4481 3.0397 60.1148 2.74538 59.8657 2.43306C59.3615 1.80242 57.948 2.01519 57.2877 2.1263C57.0296 2.17135 56.4504 1.58932 56.3123 1.35207C56.0392 0.883596 55.9523 0.646026 55.4811 0.41479C54.9559 0.15953 54.6614 -0.0925861 54.0972 0.0335424C53.548 0.159671 53.5122 0.441818 53.2361 0.940326C52.8219 1.69109 52.63 2.40866 52.1048 3.09936C51.4745 3.92821 51.0751 4.54733 50.814 5.55636C50.6009 6.3792 49.4814 7.02166 48.8421 7.54119C48.2179 8.04871 48.0977 9.01844 47.6475 9.67911C47.3894 10.0575 47.1644 10.4961 46.8192 10.7994C46.4081 11.1598 46.117 11.2771 46.093 11.8176C46.063 12.4723 46.2132 12.511 46.6873 12.9825C46.9575 13.2498 47.2395 13.487 47.4406 13.8083C47.9388 14.6101 48.446 15.388 48.9893 16.1597C48.7492 16.2648 48.443 16.3341 48.2659 16.5293C48.0888 16.7275 47.9088 17.0155 47.6897 17.1656C47.2275 17.481 46.5553 17.7667 46.2612 18.2502C46.0991 18.5114 45.898 18.7725 45.7899 19.0607C45.7029 19.289 45.628 19.7758 45.457 19.9499C45.2949 20.1121 44.8354 20.1838 44.6193 20.2649C44.4482 20.331 44.2772 20.7037 44.1691 20.8508C44.5803 21.1211 44.9889 21.3882 45.4001 21.6585C45.7212 21.8687 46.243 21.7518 46.6182 21.7518C47.3385 21.7518 48.1369 20.9798 48.8662 21.0849C49.2083 21.1359 49.6918 21.5051 49.8779 21.7934C50.202 22.2919 49.9106 22.3014 49.4664 22.6738C48.8932 23.1543 49.4454 24.3552 48.8902 24.7636C48.1339 25.3222 47.3747 25.7214 46.5344 26.1479C46.2492 26.292 45.6067 26.0731 45.2946 26.0341C44.8684 25.98 44.8237 26.2354 44.5566 26.5778C44.2685 26.9502 43.9984 27.1452 44.0285 27.6107C44.0525 27.971 44.1812 28.4635 44.0671 28.8119C43.767 29.7248 43.5963 30.2625 42.876 30.9082C43.4673 31.4277 43.8212 31.6976 44.5625 31.9499C44.3134 32.6496 44.1064 32.884 43.5572 33.3945C43.098 33.8239 42.5546 33.5658 42.3625 34.2414C42.2755 34.5418 42.1406 34.7125 42.3297 34.9588C42.5068 35.193 42.6747 35.4877 42.8878 35.6949C43.1128 35.9141 43.4403 36.0761 43.7014 36.2533C43.9175 36.4034 43.9984 36.7546 44.1064 36.9858C44.3285 37.4603 45.1565 37.16 45.5947 37.085C46.1499 36.9889 46.6396 37.4214 47.0267 37.7337C47.663 38.2502 47.7857 38.4573 48.0649 39.2381C48.2059 39.6285 47.8817 40.3285 47.7917 40.7309C47.4225 40.4456 47.0655 40.1064 46.6604 39.8722C46.1262 39.5659 45.9071 39.2832 45.3339 39.5144C45.1718 39.5775 45.2405 40.3737 45.2465 40.596C45.2615 41.0915 45.3101 41.5717 45.2261 42.0582C45.1511 42.4967 45.0548 42.9024 45.0849 43.3468C45.1509 44.2988 45.4061 44.9743 45.9284 45.7821C46.1384 46.1094 46.6484 46.5808 46.4893 46.9652C46.3272 47.3586 46.0392 47.788 46.0872 48.2174C46.1652 48.9111 46.3033 49.0853 45.7871 49.5418C45.46 49.8331 45.0788 49.7252 44.7097 49.5571C44.5326 49.476 43.6414 48.9622 43.4524 49.0433C43.3353 49.0943 43.0052 50.0736 42.9271 50.2328C42.7201 50.6562 42.1553 50.68 41.7202 50.8181C41.5071 50.8842 41.1233 50.0226 41.0062 49.8304C40.7961 49.488 40.8382 48.767 40.7782 48.3676C40.7272 48.0192 40.3547 47.6349 40.1686 47.3376C40.0125 47.4818 39.8235 47.6142 39.7154 47.8004C39.3013 48.5211 38.7221 49.413 38.8391 50.2779C38.9382 51.0017 39.4005 52.2689 39.1844 52.9326C39.0193 53.4431 38.9594 53.8692 38.5572 54.2206C38.146 54.581 37.9386 54.71 37.4194 54.8752C36.7411 55.0914 36.7054 55.1489 36.1082 54.7825C35.757 54.5693 35.4121 54.3556 35.073 54.1244C34.7158 53.8782 34.2503 53.6651 33.9832 53.3168C33.8152 53.0975 33.4162 52.3317 33.1491 52.2686C32.5339 52.1215 32.3386 52.1123 31.7323 52.3015C31.1921 52.4696 31.0872 52.1243 30.703 51.7249C30.0397 51.0312 29.5057 50.4218 28.6684 49.9624C28.2062 49.7071 27.8129 49.8811 27.2967 49.9682C26.8736 50.0403 26.4082 50.0013 25.9791 50.0163C25.6159 50.0283 25.4417 49.6202 25.1355 49.455C24.7184 49.2298 24.3073 48.9865 23.8811 48.7793C22.9688 48.3349 22.1736 48.2686 21.1712 48.1605C20.8681 48.1275 20.565 48.9201 20.2439 48.9201C19.7547 48.9201 19.3256 48.9506 18.8424 49.0257C18.3202 49.1097 18.0406 49.2894 17.5844 49.5717C17.3233 49.7339 17.2753 50.2956 17.0563 50.5418C16.7321 50.9052 16.4681 51.2627 15.9039 51.1125C15.5497 51.0195 15.3155 50.5358 14.9584 50.4187C14.6342 50.3136 13.8722 49.8841 13.548 49.9711C13.1969 50.0642 12.5874 50.0615 12.4794 50.4339C12.3323 50.9444 12.1734 51.3676 12.2004 51.8962C12.2274 52.3736 12.2635 52.8481 12.2965 53.3255C12.3146 53.5988 12.4104 54.2747 12.2543 54.4699C11.9722 54.8272 11.6901 55.1818 11.405 55.5391C11.3149 55.1758 11.2248 54.8151 11.1347 54.4517C10.8136 55.0373 10.4925 55.623 10.2074 56.1996L9.73027 57.0735C9.67925 57.1666 10.1656 57.4428 10.2496 57.5028C11.219 58.2026 12.0532 59.0225 13.0556 59.6742C13.5899 60.0196 14.0282 60.1607 14.0462 60.8004C14.0673 61.5151 14.0464 61.9955 13.8663 62.6802C13.5362 63.9385 13.5122 65.2297 13.2631 66.515C13.1401 67.1486 12.0775 68.1098 12.3446 68.6593C12.5637 69.1098 12.7045 69.5274 13.0826 69.8518C13.4217 70.1461 13.7041 70.4279 13.9982 70.7703C14.6135 71.494 14.6101 72.4553 14.3851 73.3352C14.316 73.6025 14.0492 74.3409 13.6711 74.3229C13.485 74.3139 12.9746 73.6324 12.8786 73.4402C12.5905 72.8666 12.4107 72.8724 11.7924 72.6712C11.5073 72.5781 11.0121 72.5726 10.718 72.6507C10.2348 72.7798 9.74272 72.8789 9.4366 73.3293C9.1935 73.6897 9.09999 74.2723 8.95593 74.6807C8.8659 74.9269 8.34062 75.5124 8.10653 75.6115C7.77639 75.7497 7.28428 75.4822 6.95414 75.6203C5.97575 76.0287 5.29166 76.4223 4.44531 77.0649C3.80905 77.5484 3.20304 78.1339 2.50976 78.5243C2.00856 78.8035 1.50684 79.086 1.00564 79.3683C0.684505 79.5515 0.423939 80.1011 0.207851 80.3924C-0.302356 81.0741 0.234571 82.1523 0.663895 82.813C1.24013 83.7019 2.03236 83.1879 2.89371 83.1579C3.87811 83.1248 4.86242 83.08 5.84682 83.023C6.30001 82.9959 6.7655 82.8456 7.20968 82.7555C7.59083 82.6774 8.05884 82.7947 8.44299 82.8247C8.64107 82.8397 8.64114 81.7858 8.66515 81.5666C8.70717 81.1462 8.34092 80.8126 8.74608 80.5513C9.41535 80.1219 10.3214 79.7196 11.1347 79.7947C11.708 79.8487 12.2813 79.8996 12.8545 79.9536C13.1427 79.9807 13.5838 80.6538 13.7819 80.861C14.094 81.1853 14.3073 81.6088 14.5504 81.9842C14.7544 82.2995 14.4426 82.6357 14.4876 82.9931C14.5717 83.6567 14.7663 83.7645 15.2585 84.233C15.6246 84.5814 15.712 84.8429 15.8951 85.3234C16.1592 86.0111 16.0419 86.9959 15.8798 87.7076C15.6427 88.7467 15.3518 89.4976 14.8686 90.4526C14.4815 91.2184 14.2955 92.0682 14.1634 92.909C14.0704 93.4886 14.1179 93.735 14.286 94.3056C14.457 94.8972 14.6045 94.8068 15.2197 94.942C16.1471 95.1462 17.0024 94.9664 17.8997 95.3238C18.1188 95.4109 18.8389 94.7918 18.9349 94.5666C19.085 94.2182 18.83 93.7528 19.0041 93.3624C19.2952 92.7048 19.4724 92.7472 20.1747 92.546C20.5708 92.4318 21.0027 92.4855 21.4138 92.4855C21.741 92.4855 22.2007 92.2937 22.4918 92.1465C22.7769 92.0024 23.3168 91.5726 23.6319 91.5846C24.6253 91.6267 25.5706 91.5457 26.5611 91.4556C27.6055 91.3595 28.197 91.951 28.8753 92.6117C29.0794 92.8099 29.1033 93.6359 29.3524 93.678C29.7666 93.747 30.1809 93.795 30.5951 93.8551C31.1113 93.9272 31.6241 94.0021 32.1373 94.0862C32.6235 94.1643 32.5969 93.5189 32.7229 93.0985C32.864 92.633 33.2268 92.681 33.6889 92.5518C33.9591 92.4737 34.6132 92.1494 34.8924 92.2275C35.2825 92.3386 35.9281 92.3868 36.2552 92.621C36.6694 92.9183 37.0837 93.2124 37.4979 93.5067C38.2542 94.0443 39.2352 93.99 40.1146 94.017C40.5738 94.029 41.0391 94.2096 41.4833 94.3238C41.8164 94.4108 41.7592 95.0503 42.0924 95.1343C42.5635 95.2545 43.0471 95.3474 43.5033 95.5185C43.7674 95.6176 44.0282 95.7139 44.2923 95.813C44.4003 95.855 44.1423 96.2216 44.1873 96.3056C44.2834 96.4798 45.3909 96.6927 45.559 96.7467C45.8861 96.8518 46.2192 96.9484 46.5614 96.9784C47.2546 97.0415 47.3838 97.0593 47.882 97.5368C48.0621 97.708 47.885 98.3146 47.7349 98.5128C47.1887 99.2305 46.6036 100.059 46.3785 100.951C46.1144 101.99 46.3722 102.651 46.8163 103.543C47.0174 103.945 47.1857 104.399 47.4318 104.777C47.5759 104.999 47.9181 105.81 48.1522 105.891C48.3473 105.96 49.0286 105.498 49.2537 105.384C49.7309 105.144 50.2079 104.901 50.6851 104.66C51.0843 104.459 51.4685 104.201 51.8827 104.384C52.1528 104.501 52.1048 105.068 52.0567 105.351C51.9877 105.741 51.6782 106.417 52.0233 106.675C52.3625 106.927 52.6539 107.218 53.062 107.33C54.0794 107.606 54.983 107.792 56.0304 107.894C56.4296 107.933 57.0384 107.624 57.4226 107.516C57.8728 107.39 57.954 107.186 58.2391 106.795C58.7223 106.141 58.8302 105.216 58.9232 104.411C59.0403 103.426 59.2472 102.576 59.5293 101.621C60.1416 102.176 60.2679 102.411 60.517 103.2C60.7121 103.819 60.805 104.411 60.898 105.06C60.913 105.159 61.6845 105.275 61.7925 105.303C62.2187 105.408 62.2069 105.432 62.534 105.131C62.8972 104.798 62.96 104.768 62.993 104.282C63.014 104 63.3319 103.889 63.554 103.732C63.7851 104.177 63.9533 104.918 64.4725 105.005C65.0308 105.101 65.5078 104.997 65.979 104.708C66.9364 104.117 67.813 103.408 68.7434 102.768C68.9565 103.14 68.9622 103.177 68.8542 103.585C68.6501 104.366 69.3704 105.362 69.9556 105.882C70.6669 106.516 71.4533 107.033 72.1766 107.663C72.6628 108.09 73.077 109.429 72.8279 110.053C72.6808 110.414 72.1736 110.672 71.9545 111.015C71.7144 111.393 71.4055 111.774 71.2165 112.183C70.5922 113.531 68.8817 115.657 69.71 117.192C70.0071 117.741 70.214 117.934 70.7182 118.309C70.9223 118.462 71.1051 119.111 71.0811 119.36C70.997 120.231 70.6819 121.135 70.6819 122C70.7809 121.126 72.1645 120.898 72.8308 120.784C72.9081 120.77 72.9872 120.77 73.0647 120.758C73.9305 120.257 74.7988 119.763 75.6609 119.252C76.8313 118.558 78.0764 117.968 79.3373 117.409C80.5982 116.85 81.875 116.322 83.11 115.756C84.5926 115.075 86.0753 114.396 87.5579 113.718C87.879 113.57 88.2033 113.429 88.5274 113.291C88.7503 113.196 88.9133 113.121 89.0204 113.055C89.1275 112.989 89.1786 112.932 89.1769 112.868C89.1736 112.741 88.9593 112.593 88.5632 112.315C88.7425 112.224 88.87 112.102 88.9723 111.98C89.0746 111.858 89.1522 111.736 89.2314 111.644C89.3105 111.552 89.3912 111.49 89.501 111.488C89.6109 111.486 89.7499 111.545 89.9442 111.693C90.0252 111.755 90.2657 111.458 90.5526 111.148C90.6961 110.993 90.851 110.835 91.0034 110.717C91.1558 110.6 91.3055 110.522 91.4384 110.528C91.3348 110.702 91.142 110.942 90.9829 111.19C90.8238 111.437 90.6987 111.692 90.7303 111.895C90.7468 112.003 90.8803 112.045 91.0304 112.052C91.1804 112.058 91.347 112.028 91.4296 111.991C92.3089 111.594 93.2331 111.246 94.0644 110.753C95.0848 110.151 96.0995 109.624 97.1319 109.131C98.1643 108.639 99.2148 108.181 100.307 107.717C100.679 107.56 101.105 107.423 101.491 107.229C101.684 107.133 101.868 107.022 102.029 106.887C102.19 106.753 102.329 106.594 102.435 106.402C102.708 105.905 102.949 105.433 103.231 104.993C103.513 104.553 103.837 104.145 104.275 103.774C104.487 103.595 104.726 103.449 104.983 103.325C105.239 103.2 105.513 103.097 105.793 103.006C106.352 102.824 106.937 102.689 107.459 102.516C108.332 102.225 109.167 101.822 110.01 101.452C110.285 101.332 110.62 101.232 110.916 101.087C111.064 101.015 111.202 100.931 111.318 100.828C111.434 100.726 111.527 100.605 111.586 100.456C111.638 100.322 111.729 100.208 111.845 100.109C111.962 100.009 112.103 99.925 112.254 99.8513C112.556 99.7037 112.897 99.5981 113.159 99.5005C113.709 99.2933 114.291 99.054 114.882 98.8483C115.473 98.6426 116.074 98.4705 116.664 98.3984C116.994 98.3579 117.391 98.3422 117.781 98.2934C118.17 98.2446 118.553 98.1629 118.855 97.9902C119.006 97.9031 119.12 97.7959 119.212 97.677C119.305 97.5581 119.376 97.4274 119.442 97.2934C119.575 97.0254 119.688 96.7439 119.911 96.5156C120.115 96.3077 120.372 96.1651 120.657 96.057C120.942 95.9489 121.256 95.8756 121.575 95.8065C121.894 95.7374 122.218 95.6727 122.523 95.5819C122.827 95.491 123.114 95.374 123.357 95.2006C123.607 95.0219 123.785 94.7439 123.963 94.4587C124.142 94.1734 124.321 93.8808 124.575 93.6721C124.671 93.594 124.791 93.46 124.917 93.3519C125.043 93.2438 125.175 93.1613 125.295 93.1853C125.411 93.2078 125.571 93.2125 125.684 93.163C125.741 93.1382 125.786 93.0996 125.808 93.0433C125.83 92.987 125.829 92.9126 125.793 92.8158C125.669 92.4764 125.542 92.1807 125.519 91.8943C125.507 91.7511 125.522 91.6101 125.575 91.4673C125.628 91.3245 125.721 91.1801 125.866 91.0292C126.274 90.6058 126.628 90.2904 127.105 89.9541C127.897 89.3955 128.686 88.8369 129.479 88.2783C129.606 88.1897 129.903 88.0833 130.174 87.9786C130.445 87.8739 130.69 87.7711 130.716 87.69C130.77 87.5204 130.802 87.343 130.858 87.1827C130.914 87.0224 130.995 86.8789 131.145 86.7768C131.274 86.6882 131.433 86.6036 131.58 86.5064C131.726 86.4092 131.861 86.2991 131.94 86.1609C132.016 86.0288 132.037 85.8968 132.02 85.7691C132.003 85.6415 131.947 85.5187 131.867 85.4061C131.708 85.1808 131.455 84.9961 131.231 84.894C131.568 84.7859 131.823 84.614 132.055 84.406C132.287 84.1981 132.495 83.9539 132.738 83.7016C132.953 83.4794 133.234 83.2903 133.525 83.1139C133.817 82.9375 134.119 82.7736 134.377 82.6024C134.874 82.2721 135.538 82.0159 136.049 81.6605C136.305 81.4827 136.522 81.2803 136.662 81.0311C136.731 80.9065 136.781 80.7706 136.807 80.6199C136.832 80.4693 136.833 80.304 136.804 80.122C136.745 79.7511 136.768 79.4175 136.855 79.1131C136.941 78.8088 137.09 78.5336 137.282 78.2803C137.475 78.0269 137.711 77.795 137.971 77.577C138.231 77.359 138.516 77.1552 138.805 76.957C139.053 76.7874 139.353 76.6984 139.656 76.6151C139.959 76.5317 140.265 76.454 140.528 76.3054C140.64 76.2416 140.696 76.188 140.719 76.1376C140.741 76.0873 140.729 76.0402 140.703 75.9875C140.651 75.882 140.545 75.7555 140.549 75.5452C140.552 75.4101 140.612 75.2614 140.693 75.1218C140.773 74.9821 140.874 74.8519 140.96 74.7528C141.188 74.4886 141.489 74.2805 141.807 74.0936C142.125 73.9066 142.459 73.7406 142.755 73.5604C142.87 73.4906 142.965 73.3907 143.045 73.2724C143.125 73.1541 143.189 73.0176 143.241 72.8747C143.346 72.5891 143.402 72.278 143.44 72.0378C143.491 71.7119 143.515 71.3771 143.469 71.0577C143.446 70.8979 143.405 70.7421 143.341 70.5931C143.277 70.4441 143.19 70.3018 143.073 70.1696C142.956 70.0368 142.907 69.9137 142.906 69.7954C142.906 69.6771 142.951 69.5639 143.025 69.4511C143.172 69.2255 143.43 69.0014 143.637 68.7432C143.886 68.4339 144.078 68.14 144.303 67.8956C144.415 67.7735 144.536 67.6636 144.676 67.5707C144.816 67.4778 144.976 67.402 145.165 67.3472C145.452 67.2646 145.812 67.1959 146.12 67.0645C146.273 66.9988 146.414 66.9174 146.526 66.8106C146.638 66.7037 146.72 66.5715 146.759 66.4041C146.798 66.2314 146.878 66.0995 146.979 65.9912C147.08 65.8828 147.203 65.798 147.33 65.719C147.457 65.64 147.59 65.5667 147.708 65.4821C147.827 65.3974 147.932 65.3013 148.007 65.1759C148.051 65.1031 148.029 64.9881 147.969 64.8521C147.909 64.7161 147.811 64.5591 147.703 64.4017C147.486 64.0867 147.227 63.7705 147.146 63.6204C147.07 63.4808 146.919 63.3562 146.757 63.2421C146.594 63.128 146.42 63.0241 146.294 62.9265C146.219 62.8695 146.218 62.6763 146.239 62.4755C146.259 62.2746 146.299 62.0661 146.306 61.9775C146.328 61.6517 146.252 61.36 146.138 61.0754C146.023 60.7909 145.87 60.5137 145.738 60.2179C146.007 60.4852 146.21 60.7456 146.441 60.9393C146.556 61.0362 146.679 61.1163 146.821 61.1722C146.962 61.2281 147.122 61.2596 147.314 61.2596C147.56 61.2596 147.822 61.3402 148.025 61.4878C148.127 61.5615 148.214 61.6518 148.277 61.7576C148.341 61.8633 148.379 61.9845 148.385 62.1189C148.393 62.3126 148.422 62.4936 148.421 62.6655C148.421 62.8374 148.389 63 148.274 63.1576C148.228 63.2222 148.115 63.3509 148.047 63.4861C148.013 63.5536 147.991 63.6229 147.994 63.6867C147.998 63.7505 148.026 63.8086 148.095 63.8544C148.17 63.9047 148.272 63.8662 148.386 63.7764C148.5 63.6866 148.626 63.5456 148.748 63.3922C148.992 63.0855 149.22 62.7283 149.307 62.6262C149.522 62.3732 149.761 62.148 150.018 61.9441C150.274 61.7401 150.547 61.5574 150.831 61.3904C151.399 61.0563 152.009 60.7838 152.608 60.5241C153.136 60.2943 153.649 59.9657 154.128 59.5862C154.607 59.2067 155.051 58.7764 155.441 58.3439C155.704 58.0511 155.964 57.7727 156.209 57.4829C156.251 57.4327 156.284 57.3732 156.326 57.3222L156.327 57.3222Z" fill="#8DC63F"/>
</g>
</svg>
