<svg width="135" height="111" viewBox="0 0 135 111" fill="none" xmlns="http://www.w3.org/2000/svg">

<g id="Home - ReNew - Home - v2">

<path id="path30" d="M108.328 0L108.327 0.00314145C107.25 0.395824 106.137 1.03691 105.923 2.29054C105.914 3.20486 103.551 3.01919 104.899 3.85824C105.458 4.27964 106.502 4.51175 105.597 5.18342C105.374 5.45651 105.029 5.5786 104.727 5.73572C103.92 6.21955 105.252 7.58209 103.784 7.14383C103.016 6.80787 102.72 8.0233 102.057 7.16884C101.366 7.31756 101.439 8.01036 100.602 7.72428C100.122 8.16743 99.7378 8.73016 98.9703 8.33758C98.2933 9.54613 97.198 9.43039 95.8776 9.16681C94.778 10.1918 93.2902 11.8969 93.64 13.388C95.0145 14.1442 94.8566 16.3982 93.0587 15.9867C92.1621 15.615 91.3373 14.0999 90.2597 15.2279C89.3636 16.776 88.0082 14.4485 87.4208 14.5614C86.8019 15.8769 85.9572 17.257 84.4142 16.3701C84.2662 15.4498 84.1285 14.1323 82.7871 14.5427C81.7073 14.6405 80.2119 13.9766 79.9328 15.5221C79.8447 16.5445 78.1373 16.2851 78.9839 17.5232C79.1955 18.422 77.3041 17.4629 76.7016 17.6812C75.6785 17.7517 73.2698 17.4756 73.3828 18.9078C73.9613 20.8335 72.0902 21.5532 70.6177 20.9652C70.3091 20.9231 70.0006 20.8806 69.6919 20.8385C69.0812 21.8003 68.8263 23.3005 67.6158 23.6359C66.7252 23.9247 65.4573 24.5734 64.6507 23.9097C63.7633 23.302 65.2399 21.8345 64.4 20.9214C63.8721 20.4666 63.0832 20.7294 62.4346 20.6147L60.0909 20.5005C59.4331 21.6583 57.4784 21.5203 57.7994 23.1994C57.2835 24.0987 55.8977 24.5157 55.5295 25.3976C54.7188 25.3413 54.7649 26.3871 53.8317 26.05C52.6086 26.476 52.6882 24.6983 51.4202 25.0362C50.4866 24.6651 50.373 24.8985 50.3206 25.8216C49.5859 26.4635 48.0485 25.3367 46.9573 25.9108C46.3281 25.929 44.5335 25.8926 45.7746 26.6383C47.5621 26.2754 46.0422 28.212 46.2483 29.1338C45.9638 30.1128 47.2293 32.0921 45.6486 32.094C44.2215 31.9356 42.9026 32.2323 42.176 33.5725C41.394 33.8198 40.3461 33.1677 39.9753 34.0434C38.9705 34.8275 39.0814 36.4569 38.9972 37.6764C38.9853 38.1295 38.9975 38.5842 39.0464 39.0328C39.1797 39.3716 39.098 39.7531 39.2263 40.0952C39.8312 40.4167 40.8793 40.1224 40.8734 41.1919C42.6924 40.3215 40.8823 42.5941 41.75 43.1602C42.2643 44.1826 42.853 44.048 43.8907 43.8939C44.6897 45.145 44.2522 46.8069 42.5682 46.3331C41.4361 45.2062 40.263 45.8257 38.8572 45.9686C36.9488 45.8178 35.0245 45.8741 33.1163 46.0718C31.9252 46.56 28.9991 45.9731 29.9544 48.0651C29.1626 50.0572 31.827 49.2332 32.1059 50.7546C34.2666 50.9523 32.8065 52.1313 31.9982 53.1437C30.9795 53.2805 29.8781 53.3683 28.9378 53.9948C27.2933 54.1307 27.9431 56.3117 28.0351 57.4259C27.1204 57.7859 25.2567 57.8685 23.9719 57.9657C24.3308 58.9477 24.213 60.4393 24.2918 61.7206C22.3137 61.941 20.258 62.0999 18.3387 61.439C15.363 61.0838 12.3258 61.1141 9.37274 60.505C9.26888 62.0717 9.63189 63.6299 9.48041 65.1987C8.62526 65.8041 7.03022 66.4189 5.77253 66.0169L5.76949 66.0201C5.21459 66.4615 5.00372 67.1654 4.62529 67.7254C4.05012 68.0536 3.52115 68.6251 3.75328 69.3526C4.15075 70.1822 3.51153 70.5846 2.75979 70.5604C2.47172 70.6203 2.20982 70.749 1.9509 70.8843C1.12512 71.2283 -0.811462 71.0067 0.374535 72.2392C1.0963 73.2183 0.624495 75.5447 1.21889 75.8737C2.1266 75.7041 1.38111 77.352 2.35846 77.346C1.94408 78.378 2.0004 81.8724 3.65333 80.1199C5.14011 78.8261 6.87706 78.7142 8.34852 80.0511C9.9485 81.0555 7.85319 82.6272 6.61993 81.927C5.4281 82.1486 2.05181 80.9275 2.80289 82.9878C3.91091 82.591 5.54031 83.0093 4.60531 84.5226C4.12317 85.7291 5.07854 88.6814 6.62148 87.2324C7.95303 86.0286 9.87444 86.0954 10.1679 88.0945C10.1366 89.1912 11.3879 88.9222 11.9041 88.7829C12.3612 90.4136 14.816 88.8487 14.8338 90.7058C15.3163 91.7375 13.5012 93.642 15.3813 93.9476C16.8842 94.1789 16.1731 96.6948 15.0722 97.0454C14.4169 98.3261 13.718 100.46 15.6919 100.799C16.6461 99.1555 20.4347 99.0848 20.2011 101.354C19.7076 102.327 19.2508 102.972 20.4579 103.521C21.109 104.682 23.3284 104.484 23.1338 105.962C22.6001 106.846 21.9052 108.742 23.7351 108.284C24.3165 106.977 23.6395 110.449 24.8024 108.897C24.8023 108.897 24.8026 108.897 24.8024 108.897C25.4648 108.452 25.3857 107.378 26.2034 107.024C26.4802 106.387 27.0959 106.142 27.4353 106.88C28.3314 106.901 27.1619 105.416 27.5107 104.828C27.8589 103.919 28.5543 103.233 29.5591 103.34C30.3588 103.343 30.5462 102.195 31.2108 102.909C31.6449 102.601 31.9842 102.079 32.6887 102.152C33.5768 102.008 32.778 100.626 33.8545 100.566C34.7718 100.284 35.3005 99.4445 36.0429 98.8791C36.8106 98.662 37.5773 99.5409 38.4451 99.048C39.3124 98.9142 40.5236 98.9514 40.9765 99.8632C41.1684 100.721 41.8186 101.684 41.3916 102.542C41.1693 103.305 42.8151 103.167 42.3867 104.169C42.6891 105.271 43.7956 106.078 44.8027 106.383C45.4115 106.022 45.9269 106.157 46.2821 106.719C46.9739 106.81 48.1491 107.101 48.6044 106.725C48.5681 106.325 48.2031 105.927 48.4198 105.525C48.9572 106.121 49.5396 106.834 50.4083 106.816C51.2214 107.094 52.0447 106.544 52.463 105.857C53.2567 105.627 54.1151 106.194 54.8528 106.513C55.7081 107.167 56.7982 106.895 57.721 107.088C58.046 107.942 59.1754 108.816 59.9925 108.589C60.4684 107.686 61.9773 107.729 62.0624 106.638C62.5604 106.116 63.1371 107.305 63.8126 107.157C64.7495 107.447 64.8016 108.368 64.6507 109.207C64.4299 109.826 64.2827 110.778 65.2782 110.446C66.096 110.054 66.7638 110.818 67.5912 110.825C68.5248 111.153 69.4038 110.935 70.3701 110.85C71.238 110.948 72.1812 110.585 72.3556 109.628C72.3347 109.106 72.0256 108.016 72.8907 108.687C73.0479 108.774 73.2048 108.861 73.3614 108.949C74.1792 109.032 75.3582 108.748 75.3975 109.762C76.142 109.927 76.6572 109.876 76.8893 110.498C78.4247 111.195 78.9682 108.693 79.8943 108.658C80.141 109.788 81.6195 111.133 81.6106 109.158C81.2676 107.616 82.8133 108.249 83.6345 108.399C84.1531 107.738 83.7672 106.833 83.9343 106.067C83.3407 104.951 81.9848 103.1 84.082 102.98C84.9412 102.709 85.3229 102.176 84.2035 101.827C83.227 100.255 85.6716 100.671 86.4765 100.018C87.5509 100.343 87.2326 101.355 86.701 101.963C87.799 102.844 89.3514 103.959 90.8226 103.781C92.0167 102.925 93.9218 102.909 95.0887 103.302C95.2524 104.122 96.2424 103.824 96.8142 104.073C97.8024 103.895 99.2183 104.076 99.873 104.71C99.8254 105.805 100.8 105.834 101.637 106.059C102.391 106.659 102.889 106.806 103.156 105.704C103.434 104.655 104.139 104.759 104.905 105.278C104.932 104.343 106.027 105.996 106.674 105.704C107.654 106.008 107.575 104.179 108.745 104.422C109.358 104.131 109.601 102.646 110.283 103.8C111.323 103.768 113.013 104.721 113.685 103.753C114.09 101.944 116.191 103.19 116.874 101.758C118.088 100.848 119.192 102.737 120.578 102.121C121.267 102.295 121.565 103.03 122.046 103.487C122.311 102.608 122.379 101.696 122.355 100.786C122.425 99.7211 123.227 98.6795 122.777 97.6133C122.966 96.7627 123.738 96.0122 123.823 95.0631C124.204 94.454 125.718 94.1801 124.856 93.2341C124.635 92.5611 125.262 91.3662 124.126 91.0562C123.004 90.4005 123.052 88.9984 122.669 87.9537C122.738 87.0686 122.874 86.0846 121.834 85.6757C122.069 84.7889 122.574 83.1587 123.781 83.7231C124.812 83.9832 124.215 85.8528 125.47 85.5083C125.903 84.6344 126.357 83.73 127.357 83.4399C128.028 83.1087 127.893 82.5939 127.403 82.2039C127.642 81.2717 125.555 81.9457 126.205 80.6816C127.153 79.5512 124.573 80.503 125.207 79.2766C125.506 78.4283 126.959 78.3737 126.371 77.2349C126.392 76.2989 127.362 75.8802 127.912 75.2682C128.838 74.0716 130.756 75.7905 131.892 74.8364C131.91 73.4706 133.244 71.833 131.561 71.0173C130.374 69.8393 131.833 68.9033 132.925 68.7111C133.464 68.1512 132.32 67.8838 132.836 67.1309C132.009 66.4472 130.176 67.0673 129.811 65.6774C130.573 64.269 128.078 65.0776 128.484 63.5339C128.049 62.7407 128.463 62.4321 129.147 62.711C130.152 62.3629 130.366 61.1518 129.576 60.5503C129.725 59.7853 131.917 60.083 130.559 59.1172C129.163 59.3428 128.17 58.5627 128.835 57.0879C128.595 55.9074 128.04 54.0426 129.757 53.9275C129.242 52.2218 131.953 53.3798 132.163 52.194C132.662 50.7436 135.265 51.1624 134.945 49.1994C134.968 48.9569 134.982 48.7134 135 48.4703C134.391 47.854 134.469 47.0529 134.516 46.2549C134.461 45.1919 134.655 44.1504 134.854 43.1148C135.036 41.9703 134.91 40.8029 134.746 39.6665C134.393 38.8658 134.021 38.0705 133.864 37.1913C133.63 35.9026 132.089 36.4752 131.515 37.1773C130.88 38.075 130.81 39.4266 129.819 40.0248C129.061 40.442 128.047 40.5905 127.669 41.4877C127.255 42.1864 126.569 43.2189 125.648 42.8175C124.813 42.539 123.927 41.5407 124.735 40.7116C125.043 39.9573 124.842 39.0911 124.759 38.3006C124.515 37.7195 124.738 36.5438 124.081 36.3918C123.324 36.5054 122.517 36.6579 121.779 36.3699C121.147 35.2573 122.67 34.6046 122.234 33.499C122.128 32.2674 120.471 32.3833 120.432 33.5662C120.279 34.3132 119.439 35.4524 118.797 35.062C119.003 34.2737 119.573 33.6538 119.776 32.8653C120.613 31.8848 118.974 32.1351 118.558 31.5479C118.28 30.9577 118.544 30.1961 118.754 29.6329L118.994 29.3873C118.062 28.8916 116.848 29.4984 116.179 29.611C115.792 28.3735 114.752 27.4202 113.562 27.0279C112.748 27.0552 112.836 25.5768 111.826 25.5369C110.847 24.5058 112.099 23.0491 111.333 21.9478C110.657 20.9747 111.009 19.8719 111.226 18.8295C111.232 17.6797 114.045 17.7293 113.005 16.2449C111.993 15.5774 110.687 15.9003 109.668 15.2295C108.872 14.6431 107.147 14.9918 107.15 13.6681C106.842 12.9046 104.484 12.7822 105.968 11.8454C106.197 10.6098 106.539 9.49203 107.499 8.63172C107.831 7.73867 108.617 6.62188 107.855 5.73884C107.68 4.67478 108.258 3.46931 107.586 2.43135C107.664 1.65935 109.323 0.587377 108.328 0Z" fill="#8DC63F"/>
</g>
</svg>
