<svg width="99" height="144" viewBox="0 0 99 144" fill="none" xmlns="http://www.w3.org/2000/svg">

<g id="Home - ReNew - Home - v2">

<path id="path3675" fill-rule="evenodd" clip-rule="evenodd" d="M47.5449 0.0578461L47.6583 0.46283L47.7149 0.404984L47.7716 0.231415L47.8849 0.173553L47.9416 0.115707L48.0549 0.0578461H48.2249H48.3949L48.6216 0.115707L48.8483 0.173553L48.9616 0.231415L49.075 0.347122L49.3583 0.46283L49.5283 0.520691H49.6983L49.8117 0.404984L49.9817 0.347122H50.2084H50.3784L50.605 0.404984H50.8317L51.0017 0.46283L51.1717 0.636398L51.4551 0.578537H51.5117L52.1918 0.867813L53.3251 1.21494L54.1185 1.73563L54.4018 1.67776L54.7985 2.08275L54.9685 2.37202L55.3085 2.83485L55.3652 2.89272L55.9319 3.70267L56.1019 4.16551L56.1585 4.39693L56.2152 4.68619V4.85976L56.3285 5.38048L56.7819 6.59541L57.1219 6.94254L57.7453 7.34752L58.312 7.81036L58.482 7.86821L58.652 7.69464L58.7086 7.6368L58.8787 7.40538L59.2753 7.28967L59.502 7.17397L59.7853 7.1161L60.2387 7.05826L60.6354 6.88469L60.862 6.82683L61.3721 6.71112L61.5421 6.65327L61.5987 6.71112L61.8254 6.59541L62.0521 6.53757L62.3354 6.47971H62.5054L62.7888 6.42186L63.1288 6.47971L63.5255 6.42186L63.6955 6.364L64.0921 6.42186L64.8855 6.71112L65.7922 6.82683L67.0956 7.05826L67.7756 7.28967L68.2856 7.6368L68.6823 8.33104L68.9656 8.96744L69.1357 9.25671L69.3057 9.60384L69.7023 10.3559L70.099 11.2816L70.439 11.9759L71.0057 12.8437L71.5724 13.2487L72.2524 13.4801L72.9324 13.6537L73.6692 13.9429L73.8958 14.0587L73.6692 13.6537L74.6325 13.8851H74.9159L75.4825 13.9429H75.7092L76.2192 14.0587H76.3892L76.6159 13.7115H76.8426L77.6359 13.8272V13.7694L77.8059 13.8851L78.0893 13.538L78.5993 13.3644L79.3926 13.0173L80.0727 12.6702L80.8661 12.323L81.4894 12.0916L82.3394 11.8023L83.1328 11.6288L84.4928 11.2238L84.8895 11.513L85.1729 11.9759L85.4562 12.4966L85.6829 12.8437L85.9662 13.1908L86.1929 13.4801L86.3629 13.8851L88.7997 15.91L90.103 16.9514L90.3864 17.1828L90.7831 17.4721L91.1797 17.8192L91.5764 18.282L91.9164 18.8027L92.1431 19.0341L92.3698 19.4391L92.8231 20.0755L95.0899 18.1085V18.0506L95.4865 18.3399L96.1099 19.2077L96.5066 19.497L96.6766 19.5548H96.7899L96.9033 19.6127L97.0166 19.9598L97.0733 22.6211L97.5266 27.0759L98.4333 33.4399L99 36.1591L96.9033 49.8128L96.6199 52.3005L96.5633 53.4576L96.5066 53.5733L96.4499 53.8047L96.3932 54.094V54.7304V54.904V55.1932V55.5404V56.0611L96.2799 56.6975V57.1603V57.6231V57.9703L96.2232 58.5488L96.1666 59.0695L96.1099 59.7059V60.1687V60.5159L96.0532 60.9787V61.4415L95.9966 62.0779V62.4829V62.7143L95.9399 62.7722H95.7699L95.4299 62.83H95.1465H94.8065L94.2398 62.8879H93.8998H93.6165L93.1631 62.9457H92.8798H92.5398H91.8031L91.5764 63.0036H91.2931H90.8964H90.4997L89.4797 63.0615H89.1963H88.7997L88.403 63.1193H88.063H87.7229H87.0429L86.7596 63.1772H86.4762H86.1362L85.7962 63.235H85.3995H85.0028L84.7195 63.2929H84.3795L84.0395 63.3507H83.7561L83.3028 63.4086H83.0195H82.6794L82.3961 63.4664H82.1128L81.9994 63.9871L81.9428 66.1856L79.7327 66.7063V67.9212L81.2627 73.4753L82.9061 77.583L84.6628 82.0378L85.3429 83.3106L86.2495 85.6247L86.9296 87.3025L86.8729 88.0546L86.1929 89.4431L84.8328 93.2615L84.3795 94.1294L83.9828 95.1707L83.2461 96.9064L82.5661 96.7907L81.9994 96.675L81.4894 96.5593L80.7527 96.3857L80.2994 96.27L79.846 96.1543L79.4493 96.0386L79.166 95.9807L78.9393 96.3278L78.7693 97.1378L78.2593 98.2949L77.2959 100.898L76.3892 103.328L75.3692 105.874L74.8592 107.147L74.2358 108.767L73.8958 109.808L73.2725 111.601L72.9324 112.527L72.4224 114.205L71.7991 115.998L71.3457 116.982L70.6657 118.197L70.1557 119.065L69.8723 119.701L69.419 120.511L69.0223 121.379L68.6256 122.073H68.569L68.399 121.495H68.1723L67.4356 121.379L67.2089 121.032L66.9823 120.627L66.7556 120.222L66.1322 120.337L65.6222 120.395L65.2822 119.99H65.1689L64.5455 120.222L64.0921 120.453H63.9788L63.6955 120.106L63.5255 119.875L63.3554 119.643L63.0721 119.701L62.4488 119.817L61.8821 119.99L61.2021 120.222H61.0887L60.522 120.164L60.012 119.99L59.7853 120.569L59.6153 120.858L59.4453 120.685L59.2187 120.395L58.992 120.106L58.822 119.99H58.5953L58.312 120.048H57.972L57.7453 120.106L57.802 120.569V120.974L57.8586 121.552V121.842L57.9153 122.652L57.5753 122.71H57.2353L56.7819 122.767H56.4419L56.4986 123.23L56.6119 123.693L56.9519 124.098L57.3486 124.734L57.8586 125.429L58.5386 126.296L59.1053 127.164L59.8987 128.264L60.4087 131.677L60.4654 132.718L60.7487 133.76L61.1454 134.28L61.4854 134.743L61.7687 135.322L62.6188 135.958V136.537L62.8454 137V137.636L62.0521 139.256L61.7687 140.066L61.5987 141.223L60.8054 142.554L60.6354 142.727V142.611V142.496L60.692 142.438V142.38V142.322V142.207V142.149V142.091L60.7487 141.975V141.917V141.802V141.744L60.8054 141.628V141.57V141.512V141.454V141.397V141.281L60.862 141.165V141.107V140.992V140.934V140.876V140.76V140.644L60.9187 140.587V140.529V140.413V140.355L60.9754 140.297V140.182V140.124V140.066V140.008L61.032 139.95V139.834V139.777L61.0887 139.661V139.603L61.1454 139.487V139.372L61.2021 139.314V139.256L61.2587 139.14L61.3154 139.025V138.909L61.3721 138.851L61.4287 138.735V138.677L61.4854 138.562V138.446V138.272V138.157V138.041V137.925V137.752H61.4287H61.3721H61.3154H61.2021H61.0887H60.9187H60.7487L60.6354 137.694H60.522L60.4087 137.636H60.2954L60.1254 137.578L60.0687 137.52L59.9553 137.405L59.8987 137.289L59.842 137.173L59.7853 137.115L59.7287 137.057L59.672 136.942L59.6153 136.884L59.502 136.768L59.4453 136.652L59.3887 136.595L59.332 136.537V136.479L59.2753 136.421V136.363H59.2187V136.305L59.162 136.247L58.9353 136.132L58.0853 135.843L57.6319 135.785L57.0086 135.669H56.3285L55.4785 135.958L54.8552 136.421L54.4585 136.826L54.2885 137.578V138.272V138.851L54.9118 139.603L54.9685 140.008L55.0252 140.355L55.1385 140.587V140.76L55.0818 141.107V141.339L55.1952 141.512L55.3085 141.686L55.4219 142.033V142.207L55.3085 142.322L55.1952 142.496L54.9685 142.611L54.8552 142.669H54.6852L54.6285 142.843L54.5718 143.132L54.6285 143.306L54.0051 142.959H53.8918L53.4951 143.132L51.2284 143.653L50.095 143.884L50.0383 143.942L49.755 144L49.6983 143.942H49.585L49.6417 143.884H49.585V143.826H49.415L49.1883 143.769L47.9983 143.479L47.5449 143.364L45.7315 142.959L45.1649 143.074L44.8248 143.248L44.0882 143.016L43.0115 142.959L42.4448 142.438L41.9347 142.091L41.6514 141.917L41.198 141.628L40.9714 141.57L40.4613 140.644L40.2913 140.471L40.008 140.182L39.3846 139.545L38.988 139.082L38.7046 138.677L38.5346 138.446L38.2513 138.157L38.0246 137.925L37.6279 137.405L37.3446 137.057L37.0046 136.652H36.9479L36.8346 136.479L36.6646 136.305L36.6079 136.247L36.5512 136.132L36.3812 135.958L36.3246 135.843L36.2112 135.727L36.1546 135.669L36.0412 135.495V135.438L35.9279 135.264L35.8712 135.09L35.8145 134.917L35.7579 134.859L35.6445 134.743L35.5879 134.628L35.5312 134.512L35.4745 134.338H35.4179L35.3612 134.165L35.3045 134.049L35.1912 133.875L35.1345 133.76L35.0212 133.586L34.9645 133.47L34.8512 133.297L34.7945 133.123L34.7378 133.065L34.6245 132.892L34.5678 132.776L34.4545 132.661L34.3978 132.545L34.3412 132.429L34.2278 132.256L34.1145 132.082L34.0011 131.966L33.9445 131.793L33.8311 131.677L33.7745 131.561L33.6611 131.388L33.5478 131.214L33.4911 131.041L33.3778 130.925L33.3211 130.751L33.2078 130.636L33.1511 130.52L33.0378 130.346L32.9811 130.173L32.9244 130.057L32.8111 129.883L32.6978 129.71L32.5844 129.536L32.4711 129.363L32.3577 129.131L32.2444 129.016L32.1311 128.842L32.0744 128.669L31.9611 128.553L31.8477 128.321L31.6777 127.974L31.6211 127.916L31.3377 127.454L31.2244 127.28L30.941 126.759L30.7144 126.412L30.6577 126.296L30.4877 126.123V126.065L30.3744 125.834L30.1477 125.487L29.9777 125.255L29.921 125.139L29.6943 124.792L29.581 124.503L29.3543 124.272V124.214H29.2977L29.1843 123.924L29.0143 123.635L28.8443 123.346L28.731 123.23L28.5043 123.172H28.4476L28.2776 123.288H28.1076L27.7676 123.346H27.7109L27.4843 123.404H27.3709H27.2009L26.9742 123.346L26.7476 123.288H26.6342L26.5776 123.23L26.4075 123.288H26.1242H26.0109H25.7275L25.6708 123.114H25.5575H25.3308H25.1042H24.9908L24.8775 122.999L24.7642 122.941H24.4241L24.0275 122.883L23.9708 123.057L23.8575 123.288L23.8008 123.462L23.6875 123.635L23.5175 123.924L23.3474 123.867L23.2341 123.809H22.9508H22.8374L22.4408 123.867H22.2141H21.9307H21.5341L21.1374 123.809L20.854 123.751L20.2307 123.693H19.834L19.3807 123.635H19.154L18.6439 123.693L18.2473 123.809L17.7939 124.04L17.3406 124.272L17.1139 123.982L16.7739 123.577L16.4339 123.172L16.0372 122.652L15.8672 122.362L15.8105 122.247L15.6405 122.015L15.4705 121.668L15.3005 121.379L14.9038 120.8L14.7338 120.337L14.5072 119.932L14.3938 119.528L14.2238 119.18V119.007L13.9971 118.428L13.8838 118.139L13.6571 117.676L13.4305 117.329L13.0338 116.577L12.9204 116.403L12.5238 115.883L12.2971 115.651L12.1838 115.42L12.1271 115.362L11.9571 115.015L11.7871 114.726L11.7304 114.61L11.5604 113.973L11.5037 113.626L11.4471 113.453L11.3337 113.279L11.0504 112.932L10.767 112.296L10.7103 111.891V111.717L10.9937 110.849L11.107 110.502V110.386H11.1637V110.271L11.2204 110.213V110.155L11.3337 109.866L11.4471 109.577H11.3904L10.3137 109.982L8.8403 108.651L8.04694 107.957L7.42357 107.378L6.6869 106.742L5.27019 105.469L4.53349 104.832L3.85345 104.254L3.74012 104.196L3.79678 104.022L3.96679 103.618L4.02345 103.386L4.19348 102.865L4.36348 102.287L4.47682 101.998L4.64682 101.477L4.76015 101.014L4.81682 100.783L4.93016 100.378L5.04349 100.146L5.10016 99.857L5.21352 99.6255L5.27019 99.2784L5.38352 99.047L5.49686 98.642L5.61019 98.2949L5.66686 98.1213H5.44019H5.27019L5.32686 97.9478L5.66686 97.0221L5.95019 96.2121L6.29023 95.9807L6.34689 95.9229V95.865V95.7493L6.29023 95.6336V95.4022L6.23353 94.9393L6.17686 94.7079L6.12019 94.3608L6.06353 93.9558L6.00686 93.7244L5.89353 93.2037L5.83686 92.7987L5.78019 92.6251V92.5094V92.3359L5.72353 92.1045L5.66686 91.8152L5.55352 91.5838L5.49686 91.1788L5.44019 91.0052L5.32686 90.6002L5.21352 90.0217L5.10016 89.5589V89.3853L4.98682 88.9803L4.87349 88.5753L4.76015 88.2282V88.0546L4.64682 87.6497L4.53349 87.1868L4.47682 86.9554L4.30682 86.4347V86.3769L4.19348 86.2611L3.96679 86.0297L3.74012 85.7983L3.68345 85.7405L3.57012 85.5669L3.23011 85.2198L3.06011 84.9883L2.66341 84.6412L2.49341 84.4098H2.43674H2.26674L2.15341 84.3519L2.09674 84.2362L1.75674 83.947L1.53004 83.6577L1.41671 83.542L1.24671 83.4263L1.02004 83.137L0.850036 82.9634L0.680034 82.7899L0.566671 82.6742L0.340003 82.4427L0 82.0956L0.283336 81.5171L0.39667 81.1699L0.510004 80.9964L0.680034 80.4757L0.793369 80.1864L1.02004 79.7236L1.13337 79.4921L1.36004 78.9136L1.64338 78.2194L1.92674 77.5251L2.09674 77.178L2.15341 77.1201L2.21008 76.8887V76.7151L2.26674 76.5994V76.4837V76.4259L2.32341 76.1945V76.0787V75.963V75.9052L2.38008 75.6159V75.5002V75.4423V75.2109L2.43674 74.9216V74.8059V74.6324L2.49341 74.5167V74.401V74.2852V74.1695L2.55008 73.996V73.8803V73.7067L2.60675 73.591V73.5331V73.3596V73.2439L2.66341 73.0703V72.9546L2.72008 72.6075V72.5496L2.77675 72.2603V72.0868V71.9711V71.7975L2.83341 71.5661L2.89011 71.4504V71.3347V71.219L2.94678 71.0454V70.9297V70.7561V70.6404L3.00344 70.5247V70.4669V70.2354L3.06011 69.9462L3.11678 69.7726V69.599L3.17345 69.3676V69.0783L3.23011 68.9048L3.28678 68.6734V68.4419L3.34345 68.2105V68.037L3.40011 67.8634L3.45678 67.7477V67.4584V67.3427H3.62678H3.85345L4.13682 67.227H4.47682L4.87349 67.1691L5.66686 67.0534H6.00686L6.8569 66.9377L7.25357 66.8799L7.70693 66.822L7.9336 66.7642H8.16027H8.50027L8.8403 66.7063L9.29364 66.6484L9.63364 66.5327L10.257 66.3592L10.8237 66.1856L11.0504 66.0699V66.012L11.1637 65.8963L11.277 65.7806L11.3904 65.6071L11.5037 65.4335L11.6171 65.3178L11.7304 65.1442L11.7871 65.0285L11.9004 64.9128L11.9571 64.7971L12.0704 64.6814L12.2971 64.45L12.4104 64.2764L12.4671 64.1607L12.5804 64.045L12.6938 63.8714L12.8071 63.7557L12.8638 63.6979L12.9204 63.5821L13.0338 63.4664L13.0904 63.3507L13.2038 63.235L13.3171 63.0615L13.4305 62.9457L13.4871 62.83L13.5438 62.7143L13.6005 62.5986L13.7705 62.4829L13.8271 62.3672L13.9971 62.1936L14.1671 61.9044L14.2805 61.7887L14.3372 61.673L14.4505 61.4994L14.5638 61.3837L14.6772 61.268L14.7338 61.1523L14.7905 61.0944L14.8472 60.9787L14.9605 60.863L15.0738 60.6894L15.1305 60.5737L15.2438 60.4001L15.3005 60.3423L15.3572 60.2844L15.4138 60.1687L15.4705 60.1109L15.5272 60.053L15.5839 59.9952L15.6405 59.9373L15.7539 59.7059L15.8672 59.5902L15.9805 59.4745V59.3588L16.1505 59.2431L16.2639 59.0695L16.3205 58.9538L16.3772 58.8381L16.4339 58.7802L16.4905 58.7224L16.5472 58.6645L16.6039 58.6067L16.6606 58.5488L16.7739 58.3752L16.8306 58.3174L16.9439 58.2017L17.0006 58.086L17.0572 58.0281L17.1706 57.9124L17.3406 57.6231L17.5106 57.3917L17.6806 57.1603L17.8506 56.9289H18.2473L18.1906 56.7553L18.0773 56.5239L17.9639 56.2925V56.1768L18.0773 55.8875V55.7718L18.1339 55.5982L18.1906 55.4247H18.2473L18.3039 55.2511L18.4173 55.0197L18.4739 54.904V54.6725L18.5306 54.4411L18.5873 54.3254L18.6439 54.2097L18.7006 54.0361L18.814 53.8626L18.9273 53.6312L19.0406 53.3997L19.0973 53.1683L19.2106 52.9948V52.8212L19.324 52.6476L19.3807 52.4741L19.4373 52.3005L19.494 52.127L19.6073 51.8955L19.664 51.7798L19.7773 51.4905L19.834 51.317L19.8907 51.0856L20.004 50.8541L20.0607 50.6806L20.174 50.507L20.2307 50.3335L20.2874 50.1599L20.4007 49.9863L20.4574 49.7549L20.514 49.5814L20.5707 49.4078L20.684 49.2342L20.7407 48.945L20.7974 48.8292L20.854 48.6557L20.9674 48.4821L21.024 48.2507L21.0807 48.135L21.1941 47.9036L21.3074 47.4986L21.4207 47.2672L21.3641 47.2093L21.4207 47.1515H21.2507H21.0807V46.9779V46.8622V46.7465L21.1374 46.4572V46.3994L21.1941 45.9944L21.2507 45.7051V45.6472L21.3074 45.4737V45.3001L21.3641 45.1265L21.4774 44.8951H21.5341L21.7607 45.0108L21.9307 45.1265L22.0441 45.1844L22.2707 45.3001L22.4408 45.358L22.6108 45.4737L22.7241 45.358L22.8374 45.1265V45.0687L22.8941 44.8373L22.9508 44.548L23.0074 44.3744V44.2587V44.0273L23.0641 43.8537V43.6223L23.1208 43.3909V43.2174V42.9859L23.1774 42.8124V42.6967V42.5231V42.4074V42.176V42.0024V41.8288V41.771L23.1208 41.6553V41.5396V41.4239V41.366L23.0641 41.2503L22.9508 41.1924L23.1208 41.1346L23.1774 41.0767L23.0641 41.0189V40.9032V40.7296H23.2341L23.3474 40.7875H23.4608H23.6308L23.6875 40.7296L23.7441 40.6717L23.8008 40.6139L23.9141 40.556L23.8008 40.4982L23.7441 40.4403L23.6875 40.3825L23.8008 40.2668V40.1511V40.0932V40.0353V39.9775L23.8575 39.8618V39.7461V39.6882V39.6304L23.8008 39.5147V39.4568V39.3411V39.2832L23.9141 39.2254H24.1408L24.2541 39.1675H24.3108V39.1097L24.1975 38.994V38.9361V38.8204L24.2541 38.7625H24.3108H24.4808L24.5942 38.8204H24.7642H24.8775H25.0475L25.1608 38.8783L25.2742 38.7625V38.7047L25.3308 38.589L25.2175 38.5311L25.1608 38.4733V38.3576V38.2997V38.184L25.2742 38.1261H25.4442L25.6142 38.0683H25.7275L25.8409 38.0104H26.0109L26.1242 37.9526H26.2375H26.4075H26.5209L26.6342 38.0683V38.2419V38.4154L26.6909 38.7047V38.8204L26.6342 38.8783H26.5776H26.4075H26.2942L26.1242 38.9361L25.9542 38.8783H25.8409H25.7842H25.6708H25.5008H25.4442H25.3308V38.994V39.1097V39.2254L25.3875 39.3411L25.4442 39.4568H25.5008L25.6142 39.5147L25.6708 39.5725H25.8975H26.0675H26.2942L26.4075 39.5147H26.5209L26.5776 39.399L26.6342 39.3411V39.2832V39.1675L26.6909 39.0518L26.7476 39.1097L26.8609 39.0518L26.9176 39.1097L27.0876 39.2254L27.2009 39.2832H27.2576L27.3709 39.399L27.4843 39.5147L27.5409 39.6304V39.7461L27.5976 39.8618V39.9775L27.6543 40.0353L27.7109 40.0932H27.7676L27.8809 40.0353L27.9943 39.9775L28.051 39.8618L28.1076 39.8039L28.1643 39.7461V39.6882L28.1076 39.5725L28.051 39.5147L27.9376 39.399L27.8809 39.3411L27.9376 39.2254H28.051L28.221 39.2832L28.2776 39.3411H28.3343H28.4476L28.561 39.2832V39.2254V39.1097L28.5043 39.0518L28.4476 38.9361L28.391 38.8204L28.2776 38.589L28.1643 38.4733V38.3576V38.2997L28.2776 38.2419L28.391 38.184L28.6176 38.1261L28.731 38.0683L28.7876 37.9526V37.8369V37.779L28.8443 37.6633V37.5476L28.9576 37.4319H29.0143H29.1276L29.2977 37.4897L29.3543 37.6055V37.6633V37.8369L29.411 37.8947V38.0683V38.2419V38.4154L29.4677 38.4733V38.6468V38.7625V38.9361L29.5243 39.0518L29.8643 39.2254L30.0343 39.2832L30.2043 39.399L30.3744 39.4568H30.5444H30.601L30.7144 39.399V39.2254V39.1097L30.8277 38.994V38.8783L30.8844 38.8204H30.9977L31.111 38.8783L31.1677 38.9361V39.0518V39.1675V39.2832V39.4568L31.0544 39.5725L30.941 39.6882L30.601 39.8618L30.4877 39.9196L30.3177 40.1511H30.261L30.2043 40.2668L30.261 40.3246L30.3177 40.4403L30.431 40.4982L30.5444 40.556H30.7144H30.8844H31.111L31.281 40.4982H31.5077H31.6777L31.7344 40.556L31.7911 40.6139L31.9044 40.6717L32.0744 40.7296H32.2444H32.4144H32.5277L32.5844 40.8453L32.5277 40.961L32.4144 41.0189L32.2444 41.1346L31.9044 41.2503H31.6777L31.5644 41.3081L31.5077 41.366V41.4817L31.5644 41.5974V41.7131L31.6211 41.8288H31.6777L31.8477 41.8867H32.0177H32.1877H32.3577H32.5277H32.6411L32.8111 41.9445L32.9244 42.0602L33.1511 42.2338L33.3211 42.3495L33.4344 42.4652L33.5478 42.5231H33.7745H33.8878L34.0011 42.5809L34.0578 42.6388L34.0011 42.7545V42.9281L33.8878 43.0438L33.6611 43.2752V43.3331V43.4488V43.6223L33.7178 43.6802L33.8878 43.7959H33.9445L34.1145 43.738L34.2278 43.6223L34.4545 43.4488L34.5678 43.3909L34.6245 43.2174L34.5112 43.1016L34.4545 42.9281L34.3412 42.7545L34.2845 42.6388V42.5231L34.2278 42.3495V42.2917H34.2845H34.3978L34.4545 42.4074H34.5678L34.6245 42.3495L34.7945 42.2917H34.9079H35.0212L35.0779 42.3495L35.1912 42.4074L35.3045 42.4652L35.3612 42.4074V42.3495L35.3045 42.2338L35.2479 42.1181L35.1912 42.0024V41.8867V41.8288L35.3045 41.771L35.4179 41.5974L35.5312 41.5396L35.6445 41.4239V41.2503V41.1924L35.5879 41.0189L35.6445 40.9032H35.7579L35.8712 40.961L35.9279 40.9032L35.9845 40.8453L35.9279 40.7296H35.8712L35.7579 40.6139V40.4982L35.8712 40.4403L36.0412 40.3246L36.0979 40.2089L36.1546 40.0932V39.9775V39.8618L36.0979 39.7461V39.6882L35.9845 39.6304L36.0412 39.5147L36.1546 39.5725H36.3246H36.4946H36.6079L36.6646 39.4568L36.7212 39.399H36.6079L36.5512 39.2832L36.4379 39.1097L36.3812 38.9361V38.8783L36.1546 38.7047L36.0979 38.6468L36.0412 38.5311L35.9845 38.4154V38.2419L36.0412 38.184L36.1546 38.0683L36.2112 38.0104V37.8947L36.0979 37.6633L36.0412 37.4897V37.374V37.2583L36.1546 37.2005L36.0979 37.0269L36.0412 36.8533L35.8712 36.6798L36.0412 36.6219L36.0979 36.5062L36.1546 36.4484L36.2679 36.2748L36.3812 36.1591L36.4379 36.1012L36.4946 35.9855L36.6646 35.5227L36.6079 35.407V35.2334L36.5512 35.1177V35.002L36.4946 34.8863V34.7706L36.3246 34.3656L36.2112 34.3077L36.1546 34.192L36.0412 34.0763L35.9845 33.7871V33.6713L36.2112 33.4399L35.8712 33.3821H35.7012H35.4179H35.1912H35.0212H34.7945H34.5112H34.2845H33.8878H33.7178H33.5478L33.3211 33.3242H33.0944H32.9811L32.8111 33.2085H32.6978H32.5844H32.5277H32.3577H32.2444L32.0177 33.1506H31.9044H31.7344H31.6211H31.4511H31.281H31.1677H30.9977L30.7144 33.0928H30.601L30.4877 33.035H30.3177H30.2043H30.0343L29.921 32.9771H29.751H29.581H29.411L29.3543 32.9192L29.2977 32.8614L29.241 32.8035L29.071 32.6878V32.7457V32.9192H29.0143L28.901 32.9771H28.7876L28.6743 33.035L28.391 33.0928H28.2776L28.1643 33.1506L27.9943 33.2085L27.8243 33.2664H27.6543L27.4276 33.3242L27.2009 33.3821H27.0876L26.9742 33.3242L26.8042 33.2664L26.6342 33.2085L26.5209 33.0928H26.4642L26.4075 33.035L26.2942 32.9771L26.2375 32.9192H26.1242H26.0109H25.8409H25.7275H25.6142H25.5008L25.4442 32.8614L25.2742 32.9192L25.1042 32.9771H24.9342L24.8208 33.035H24.5942H24.4241H24.3108H24.1975H24.0275H23.9708H23.8575H23.6875H23.5741L23.4608 33.0928L23.4041 33.035V32.9771H23.2341H23.0641L23.0074 32.9192V32.8614V32.7457V32.63V32.5721H22.8941H22.7808H22.7241H22.6108L22.4408 32.63V32.5721V32.3407V32.2828V32.225L22.4974 32.1093V31.9936V31.8779V31.7621V31.6464L22.5541 31.5886V31.5307V31.4729L22.6108 31.3572V31.2415V31.1836V31.0679V31.01V30.8365H22.7241H22.8374V30.7208V30.5472V30.4315V30.3736L22.7808 30.3158V30.2001L22.7241 30.0844V30.0265V29.9686V29.8529V29.7372V29.5637V29.448L22.6674 29.2744V29.1008V28.9851L22.6108 28.9273V28.8116L22.5541 28.6958V28.5801V28.4644L22.4408 28.233L22.3841 28.0595V27.9437L22.3274 27.828L22.2707 27.6545V27.5966V27.5388L22.2141 27.4809V27.3652L22.1574 27.3074V27.1916L22.1007 27.1338L21.9874 27.0759L21.9307 27.0181L21.7607 26.9024V26.8445L21.8174 26.6709L21.9307 26.4974H22.0441H22.1007L22.4408 26.5552H22.8941L23.0641 26.4974H23.2908L23.6875 26.6131L23.9708 26.7288H24.2541L24.6508 26.7866H25.0475H25.2742H25.5575L25.7842 26.8445L26.1242 26.9024L26.4075 26.9602H26.9176H27.2576H27.4843H27.7109L27.9376 26.8445H28.1643L28.4476 26.7866L28.6176 26.7288L28.9576 26.6709L29.241 26.6131L29.4677 26.4974H29.581H29.8077H30.1477H30.431H30.6577L30.941 26.4395H31.1677H31.2244H31.3377L31.5644 26.3238L31.6777 26.266L31.9044 26.2081L32.2444 26.0924H32.4144L32.6978 26.0345L32.9244 25.9767L33.1511 25.9188H33.3211H33.7178H33.7745H34.0011H34.1712H34.3412H34.6245H35.0779L35.3045 25.9767H35.6445V26.266L35.7012 26.4395L35.6445 26.6131V26.6709V26.8445L35.7012 26.9024L35.7579 26.8445H35.9279L35.9845 26.9024L36.0412 27.0181L36.2112 27.1338L36.3246 27.1916H36.4379H36.6079L36.8346 27.1338H36.8912L36.9479 27.1916L37.0046 27.3074V27.4231L37.0612 27.4809L37.1179 27.5966V27.6545L37.3446 27.5966L37.5146 27.5388L37.6279 27.4809L37.7413 27.4231H37.8546L37.9679 27.3652H38.0246H38.0813L38.308 27.2495V27.3652V27.4809L38.3646 27.5388V27.6545L38.4213 27.828L38.478 27.9437V28.1173L38.5346 28.1752H38.5913H38.818H38.9313H39.2146H39.3846L39.6113 28.1173H39.838H40.0647H40.1213H40.2913H40.688H40.858H41.0847H41.3114H41.4814L41.5947 28.0595H41.7647L41.7081 28.1173L41.5947 28.2909H41.6514H41.7647L41.9914 28.4066L42.1048 28.4644L42.2181 28.5223H42.2747L42.3881 28.5801L42.4448 28.638L42.5014 28.6958H42.6148L42.7281 28.7537H42.7848H42.8981L43.0115 28.8116L43.1248 28.8694L43.1815 28.9273L43.2381 28.9851H43.3515L43.5781 28.9273L43.6348 28.8694H43.7481H43.8615H44.0315L44.0882 28.8116H44.2015H44.3148H44.4282H44.5982H44.7682H44.8815H45.0515L45.3915 28.7537V28.8694L45.3349 29.043H45.3915H45.5615L45.7315 29.1008H45.9015H46.0149H46.1849H46.2982H46.4116V29.2165H46.5249L46.8082 29.1587H47.0916L47.2616 29.1008H47.4883H47.5449H47.7149H47.8283L47.9983 28.9851L48.1116 28.9273L48.2249 28.8694H48.3383L48.5083 28.8116L48.7916 28.7537V28.8694L48.8483 28.9851V29.043V29.2165V29.3322V29.6794V29.7372H48.905L49.0183 29.6794L49.1316 29.6215L49.1883 29.5637L49.415 29.5058L49.585 29.448L49.755 29.3901L50.0383 29.2744L50.265 29.1587L50.435 29.043L50.5484 28.9851L50.6617 28.9273L50.8317 28.8116L50.9451 28.7537L51.1151 28.6958L51.2284 28.638L51.3417 28.5801L51.4551 28.5223L51.6251 28.4066L51.7951 28.2909L51.8517 28.233L51.9084 28.1752L52.0784 28.1173L52.1918 28.0016L52.3051 27.9437L52.3618 27.828L52.4184 27.7123L52.4751 27.6545L52.5318 27.5966L52.6451 27.5388L52.7018 27.4809L52.8151 27.4231L52.9284 27.3652L53.0984 27.2495L53.2685 27.1916L53.3818 27.1338L53.5518 27.0181L53.7218 26.9602L53.7785 26.9024L53.8918 26.4974V26.3817L54.0051 26.0924L54.0618 25.8031L54.1185 25.5717L54.1751 25.3981L54.2885 24.9932L54.3452 24.7617L54.4018 24.5303L54.4585 24.3568L54.5152 24.1253L54.6852 23.6046V23.3732L54.8552 22.9104L54.9118 22.7947L54.9685 22.5633V22.4476L54.8552 22.1004L54.7418 21.9847L54.6852 21.7533L54.6285 21.6376V21.5219L54.5152 21.2326L54.4585 21.0012L54.4018 20.8276L54.3452 20.5962V20.5384L54.2318 20.2491L54.1185 19.902L54.0618 19.7863L53.7785 19.497L53.4951 19.1499L53.3818 18.9763L53.2685 18.9184L53.0984 18.7449L52.9284 18.5713L52.8718 18.5135H52.8151H52.7584H52.6451L52.5318 18.4556L52.4751 18.3978H52.3618H52.3051H52.1351L52.0784 18.282H52.0218H51.9651H51.9084H51.7951L51.7384 18.1663L51.6251 18.1085H51.5117H51.3984L51.3417 18.1663V18.1085H51.2851H51.1717V17.9928H51.0584H50.9451H50.8317H50.775V17.9349V17.877L50.7184 17.7613V17.7035V17.5878V17.5299L50.6617 17.3563L50.605 17.2406V17.1249L50.5484 17.0671V16.9514L50.4917 16.8935V16.8357L50.435 16.7199L50.3784 16.6042V16.5464L50.265 16.6042H50.2084V16.5464L50.1517 16.3728L50.095 16.315L49.9817 16.1414L49.925 15.9678L49.8684 15.8521L49.8117 15.7364L49.6983 15.4472L49.585 15.2736V15.1579L49.5283 15.0422L49.415 14.7529V14.5793L49.3583 14.4058L49.3017 14.2901L49.245 14.1165L49.1883 13.8272V13.7115L49.1316 13.5958V13.4801V13.3644V13.1908V13.133L49.075 13.0173L49.1316 12.9016V12.7859V12.6702V12.5544V12.4966V12.3809L49.075 12.2652L49.1316 12.2073V11.9759H49.0183H48.7916L48.6216 11.8602H48.5083L48.3383 11.8023L48.1683 11.7445L47.9416 11.6866V11.5709L47.8283 11.513L47.7716 11.3973L47.6583 11.2816L47.5449 11.1659L47.4316 11.0502L47.3182 10.9345L47.2049 10.8188L47.0349 10.7031L46.9216 10.5295L46.8082 10.4716L46.6949 10.3559L46.5816 10.2981L46.8082 10.2402L46.7516 10.1824L46.6949 10.0667L46.6382 9.95096L46.5249 9.83525L46.4682 9.71954L46.4116 9.60384L46.2982 9.48813L46.1849 9.31458L46.1282 9.14101L46.0715 8.96744L45.9582 8.85173L45.9015 8.67818L45.7882 8.50461L45.7315 8.33104L45.6182 8.21533V8.09962L45.5049 7.98392L45.4482 7.81036L45.3915 7.69464L45.3349 7.52109L45.2782 7.46323L45.2215 7.40538L45.1649 7.34752L45.1082 7.28967L45.0515 7.23181V7.17397L44.9382 7.05826L44.8815 6.94254L44.8248 6.88469L44.7682 6.82683L44.7115 6.71112L44.5415 6.53757L44.4282 6.42186L44.3715 6.30615L44.2582 6.19043L44.2015 6.07472L44.0882 5.90117H43.9748L43.9181 5.84331L43.8048 5.78546L43.7481 5.66975L43.6915 5.55405L43.6348 5.43832V5.38048L43.5781 5.32259L43.5215 5.20688L43.4648 5.14903L43.4081 4.97546V4.85976L43.4648 4.74405V4.62834V4.51263L43.5215 4.39693L43.4648 4.28122L43.5215 3.99194V3.87624V3.76053V3.58696V3.41341V3.2977V3.12413V2.95056V2.83485V2.60344V2.42987V1.90919V1.56206V1.3885L43.5781 1.09923L43.5215 0.809952V0.636398H43.7481L44.0315 0.578537L44.2015 0.46283L44.3715 0.404984H44.4282H44.5415L44.8248 0.289276H45.2215L45.3349 0.231415H45.6182H45.7315H45.9015H45.9582L46.1849 0.173553L46.4116 0H46.4682H46.6382H46.7516H46.9216H47.0916H47.2616L47.4316 0.0578461H47.5449Z" fill="#8DC63F"/>
</g>
</svg>
