<svg width="608" height="314" viewBox="0 0 608 314" fill="none" xmlns="http://www.w3.org/2000/svg">
<g id="Home - ReNew - Home - v2">
<g id="Layer 2">
<g id="Group">
<g id="Group_2">
<path id="Vector" d="M473.728 3.87295L473.817 14.3468L463.33 14.4361L463.24 3.96232L473.728 3.87295Z" fill="#2A5313"/>
<path id="Vector_2" d="M504.424 1.78905L504.545 15.9068L490.408 16.0273L490.288 1.90952L504.424 1.78905Z" fill="#2A5313"/>
<path id="Vector_3" d="M532.12 0.700033L532.255 16.5236L516.41 16.6587L516.275 0.835058L532.12 0.700033Z" fill="#2A5313"/>
<path id="Vector_4" d="M560.219 0.000188447L560.362 16.7461L543.594 16.889L543.451 0.143084L560.219 0.000188447Z" fill="#2A5313"/>
<path id="Vector_5" d="M583.332 3.13693L583.418 13.2158L573.326 13.3018L573.24 3.22294L583.332 3.13693Z" fill="#2A5313"/>
<path id="Vector_6" d="M607.93 3.93077L607.999 12.0021L599.917 12.0709L599.848 3.99965L607.93 3.93077Z" fill="#2A5313"/>
</g>
<g id="Group_3">
<path id="Vector_7" d="M472.284 33.4054L470.551 43.7357L460.207 42.0049L461.94 31.6747L472.284 33.4054Z" fill="#2A5313"/>
<path id="Vector_8" d="M502.876 36.6782L500.54 50.6023L486.597 48.2694L488.933 34.3453L502.876 36.6782Z" fill="#2A5313"/>
<path id="Vector_9" d="M530.339 40.4075L527.721 56.0142L512.093 53.3994L514.712 37.7928L530.339 40.4075Z" fill="#2A5313"/>
<path id="Vector_10" d="M558.135 44.5906L555.364 61.107L538.826 58.3398L541.597 41.8234L558.135 44.5906Z" fill="#2A5313"/>
<path id="Vector_11" d="M580.351 51.6886L578.684 61.6292L568.73 59.9637L570.397 50.0231L580.351 51.6886Z" fill="#2A5313"/>
<path id="Vector_12" d="M604.438 56.7375L603.103 64.6981L595.131 63.3643L596.467 55.4037L604.438 56.7375Z" fill="#2A5313"/>
</g>
<g id="Group_4">
<path id="Vector_13" d="M465.728 62.2404L462.225 72.1131L452.339 68.6148L455.842 58.7421L465.728 62.2404Z" fill="#2A5313"/>
<path id="Vector_14" d="M495.286 70.7673L490.564 84.0748L477.239 79.3595L481.961 66.0519L495.286 70.7673Z" fill="#2A5313"/>
<path id="Vector_15" d="M521.684 79.2035L516.392 94.1189L501.456 88.8338L506.748 73.9184L521.684 79.2035Z" fill="#2A5313"/>
<path id="Vector_16" d="M548.329 88.1419L542.729 103.927L526.923 98.3336L532.523 82.5487L548.329 88.1419Z" fill="#2A5313"/>
<path id="Vector_17" d="M568.974 98.9848L565.604 108.485L556.091 105.119L559.461 95.6184L568.974 98.9848Z" fill="#2A5313"/>
<path id="Vector_18" d="M591.816 108.135L589.116 115.743L581.498 113.047L584.197 105.439L591.816 108.135Z" fill="#2A5313"/>
</g>
<g id="Group_5">
<path id="Vector_19" d="M454.257 89.4985L449.091 98.6138L439.963 93.4543L445.13 84.339L454.257 89.4985Z" fill="#2A5313"/>
<path id="Vector_20" d="M481.885 103.024L474.921 115.31L462.618 108.356L469.582 96.0693L481.885 103.024Z" fill="#2A5313"/>
<path id="Vector_21" d="M506.416 115.909L498.61 129.681L484.821 121.886L492.626 108.115L506.416 115.909Z" fill="#2A5313"/>
<path id="Vector_22" d="M531.102 129.333L522.842 143.907L508.249 135.658L516.509 121.084L531.102 129.333Z" fill="#2A5313"/>
<path id="Vector_23" d="M549.547 143.59L544.575 152.362L535.792 147.397L540.764 138.625L549.547 143.59Z" fill="#2A5313"/>
<path id="Vector_24" d="M570.452 156.561L566.471 163.586L559.437 159.61L563.418 152.585L570.452 156.561Z" fill="#2A5313"/>
</g>
<g id="Group_6">
<path id="Vector_25" d="M438.223 114.355L431.55 122.436L423.458 115.772L430.131 107.691L438.223 114.355Z" fill="#2A5313"/>
<path id="Vector_26" d="M463.077 132.466L454.083 143.358L443.176 134.375L452.171 123.483L463.077 132.466Z" fill="#2A5313"/>
<path id="Vector_27" d="M484.994 149.409L474.913 161.617L462.689 151.549L472.77 139.341L484.994 149.409Z" fill="#2A5313"/>
<path id="Vector_28" d="M506.971 166.911L496.302 179.831L483.365 169.176L494.033 156.256L506.971 166.911Z" fill="#2A5313"/>
<path id="Vector_29" d="M522.658 184.15L516.237 191.926L508.451 185.513L514.872 177.737L522.658 184.15Z" fill="#2A5313"/>
<path id="Vector_30" d="M540.991 200.549L535.849 206.776L529.613 201.641L534.755 195.414L540.991 200.549Z" fill="#2A5313"/>
</g>
<g id="Group_7">
<path id="Vector_31" d="M418.106 136.052L410.13 142.853L403.32 134.887L411.296 128.086L418.106 136.052Z" fill="#2A5313"/>
<path id="Vector_32" d="M439.437 158.199L428.686 167.366L419.506 156.629L430.258 147.462L439.437 158.199Z" fill="#2A5313"/>
<path id="Vector_33" d="M458.073 178.685L446.022 188.959L435.734 176.924L447.785 166.65L458.073 178.685Z" fill="#2A5313"/>
<path id="Vector_34" d="M476.674 199.73L463.921 210.603L453.033 197.867L465.786 186.993L476.674 199.73Z" fill="#2A5313"/>
<path id="Vector_35" d="M489.124 219.429L481.448 225.973L474.895 218.308L482.571 211.763L489.124 219.429Z" fill="#2A5313"/>
<path id="Vector_36" d="M504.327 238.758L498.18 243.999L492.932 237.86L499.079 232.619L504.327 238.758Z" fill="#2A5313"/>
</g>
<g id="Group_8">
<path id="Vector_37" d="M394.518 153.929L385.48 159.243L380.159 150.217L389.197 144.903L394.518 153.929Z" fill="#2A5313"/>
<path id="Vector_38" d="M411.674 179.435L399.492 186.598L392.319 174.432L404.501 167.269L411.674 179.435Z" fill="#2A5313"/>
<path id="Vector_39" d="M426.468 202.84L412.813 210.869L404.774 197.233L418.428 189.204L426.468 202.84Z" fill="#2A5313"/>
<path id="Vector_40" d="M441.124 226.792L426.674 235.289L418.166 220.858L432.615 212.361L441.124 226.792Z" fill="#2A5313"/>
<path id="Vector_41" d="M449.96 248.353L441.263 253.467L436.142 244.782L444.839 239.668L449.96 248.353Z" fill="#2A5313"/>
<path id="Vector_42" d="M461.575 270.03L454.61 274.125L450.51 267.17L457.474 263.074L461.575 270.03Z" fill="#2A5313"/>
</g>
<g id="Group_9">
<path id="Vector_43" d="M368.19 167.446L358.365 171.112L354.694 161.301L364.518 157.634L368.19 167.446Z" fill="#2A5313"/>
<path id="Vector_44" d="M380.649 195.538L367.406 200.48L362.458 187.255L375.7 182.313L380.649 195.538Z" fill="#2A5313"/>
<path id="Vector_45" d="M391.145 221.157L376.303 226.696L370.756 211.873L385.599 206.334L391.145 221.157Z" fill="#2A5313"/>
<path id="Vector_46" d="M401.416 247.285L385.708 253.147L379.838 237.46L395.546 231.598L401.416 247.285Z" fill="#2A5313"/>
<path id="Vector_47" d="M406.372 270.049L396.918 273.577L393.385 264.136L402.839 260.608L406.372 270.049Z" fill="#2A5313"/>
<path id="Vector_48" d="M414.038 293.405L406.467 296.23L403.638 288.669L411.209 285.844L414.038 293.405Z" fill="#2A5313"/>
</g>
<g id="Group_10">
<path id="Vector_49" d="M339.908 176.191L329.595 178.098L327.685 167.799L337.998 165.892L339.908 176.191Z" fill="#2A5313"/>
<path id="Vector_50" d="M347.292 206.019L333.392 208.59L330.818 194.707L344.718 192.137L347.292 206.019Z" fill="#2A5313"/>
<path id="Vector_51" d="M353.176 233.067L337.596 235.948L334.711 220.388L350.291 217.507L353.176 233.067Z" fill="#2A5313"/>
<path id="Vector_52" d="M358.746 260.581L342.258 263.63L339.205 247.163L355.693 244.115L358.746 260.581Z" fill="#2A5313"/>
<path id="Vector_53" d="M359.668 283.86L349.744 285.695L347.907 275.784L357.831 273.949L359.668 283.86Z" fill="#2A5313"/>
<path id="Vector_54" d="M363.156 308.187L355.209 309.657L353.737 301.72L361.685 300.25L363.156 308.187Z" fill="#2A5313"/>
</g>
<g id="Group_11">
<path id="Vector_55" d="M310.536 179.9L300.048 179.99L299.958 169.516L310.446 169.426L310.536 179.9Z" fill="#2A5313"/>
<path id="Vector_56" d="M312.621 210.557L298.484 210.678L298.363 196.56L312.5 196.44L312.621 210.557Z" fill="#2A5313"/>
<path id="Vector_57" d="M313.712 238.215L297.867 238.35L297.732 222.527L313.576 222.391L313.712 238.215Z" fill="#2A5313"/>
<path id="Vector_58" d="M314.414 266.275L297.646 266.418L297.502 249.673L314.27 249.529L314.414 266.275Z" fill="#2A5313"/>
<path id="Vector_59" d="M311.275 289.359L301.183 289.445L301.096 279.366L311.188 279.28L311.275 289.359Z" fill="#2A5313"/>
<path id="Vector_60" d="M310.478 313.925L302.396 313.994L302.327 305.922L310.409 305.853L310.478 313.925Z" fill="#2A5313"/>
</g>
<g id="Group_12">
<path id="Vector_61" d="M280.963 178.46L270.619 176.73L272.352 166.399L282.696 168.13L280.963 178.46Z" fill="#2A5313"/>
<path id="Vector_62" d="M277.688 209.013L263.745 206.68L266.081 192.756L280.023 195.088L277.688 209.013Z" fill="#2A5313"/>
<path id="Vector_63" d="M273.954 236.439L258.326 233.825L260.944 218.218L276.571 220.833L273.954 236.439Z" fill="#2A5313"/>
<path id="Vector_64" d="M269.764 264.197L253.226 261.43L255.996 244.914L272.534 247.681L269.764 264.197Z" fill="#2A5313"/>
<path id="Vector_65" d="M262.659 286.384L252.705 284.719L254.373 274.778L264.326 276.443L262.659 286.384Z" fill="#2A5313"/>
<path id="Vector_66" d="M257.604 310.439L249.633 309.106L250.968 301.145L258.939 302.479L257.604 310.439Z" fill="#2A5313"/>
</g>
<g id="Group_13">
<path id="Vector_67" d="M252.09 171.912L242.204 168.414L245.707 158.541L255.593 162.039L252.09 171.912Z" fill="#2A5313"/>
<path id="Vector_68" d="M243.554 201.431L230.229 196.716L234.95 183.408L248.275 188.124L243.554 201.431Z" fill="#2A5313"/>
<path id="Vector_69" d="M235.108 227.795L220.173 222.51L225.465 207.594L240.4 212.879L235.108 227.795Z" fill="#2A5313"/>
<path id="Vector_70" d="M226.157 254.403L210.351 248.81L215.951 233.025L231.757 238.618L226.157 254.403Z" fill="#2A5313"/>
<path id="Vector_71" d="M215.298 275.023L205.785 271.657L209.156 262.156L218.669 265.523L215.298 275.023Z" fill="#2A5313"/>
<path id="Vector_72" d="M206.139 297.836L198.521 295.14L201.22 287.532L208.838 290.228L206.139 297.836Z" fill="#2A5313"/>
</g>
<g id="Group_14">
<path id="Vector_73" d="M224.797 160.458L215.67 155.299L220.836 146.183L229.964 151.343L224.797 160.458Z" fill="#2A5313"/>
<path id="Vector_74" d="M211.256 188.048L198.953 181.094L205.917 168.807L218.22 175.762L211.256 188.048Z" fill="#2A5313"/>
<path id="Vector_75" d="M198.352 212.545L184.562 204.751L192.367 190.979L206.157 198.774L198.352 212.545Z" fill="#2A5313"/>
<path id="Vector_76" d="M184.91 237.198L170.316 228.949L178.576 214.375L193.17 222.624L184.91 237.198Z" fill="#2A5313"/>
<path id="Vector_77" d="M170.634 255.62L161.851 250.655L166.822 241.884L175.605 246.848L170.634 255.62Z" fill="#2A5313"/>
<path id="Vector_78" d="M157.646 276.499L150.612 272.523L154.593 265.498L161.627 269.474L157.646 276.499Z" fill="#2A5313"/>
</g>
<g id="Group_15">
<path id="Vector_79" d="M199.909 144.442L191.817 137.779L198.49 129.698L206.582 136.361L199.909 144.442Z" fill="#2A5313"/>
<path id="Vector_80" d="M181.774 169.267L170.867 160.285L179.861 149.392L190.768 158.375L181.774 169.267Z" fill="#2A5313"/>
<path id="Vector_81" d="M164.808 191.153L152.583 181.085L162.664 168.877L174.889 178.944L164.808 191.153Z" fill="#2A5313"/>
<path id="Vector_82" d="M147.284 213.1L134.347 202.445L145.015 189.525L157.953 200.18L147.284 213.1Z" fill="#2A5313"/>
<path id="Vector_83" d="M130.021 228.767L122.234 222.354L128.655 214.578L136.442 220.99L130.021 228.767Z" fill="#2A5313"/>
<path id="Vector_84" d="M113.6 247.075L107.364 241.94L112.506 235.713L118.742 240.848L113.6 247.075Z" fill="#2A5313"/>
</g>
<g id="Group_16">
<path id="Vector_85" d="M178.182 124.354L171.372 116.389L179.348 109.587L186.159 117.553L178.182 124.354Z" fill="#2A5313"/>
<path id="Vector_86" d="M156.006 145.656L146.827 134.919L157.579 125.752L166.758 136.489L156.006 145.656Z" fill="#2A5313"/>
<path id="Vector_87" d="M135.496 164.27L125.207 152.235L137.258 141.96L147.546 153.995L135.496 164.27Z" fill="#2A5313"/>
<path id="Vector_88" d="M114.42 182.844L103.532 170.108L116.285 159.234L127.173 171.97L114.42 182.844Z" fill="#2A5313"/>
<path id="Vector_89" d="M94.6948 195.279L88.1416 187.613L95.8172 181.069L102.37 188.734L94.6948 195.279Z" fill="#2A5313"/>
<path id="Vector_90" d="M75.3398 210.463L70.0918 204.324L76.2385 199.083L81.4865 205.222L75.3398 210.463Z" fill="#2A5313"/>
</g>
<g id="Group_17">
<path id="Vector_91" d="M160.279 100.808L154.958 91.7821L163.996 86.4678L169.317 95.4937L160.279 100.808Z" fill="#2A5313"/>
<path id="Vector_92" d="M134.737 117.942L127.564 105.776L139.747 98.613L146.919 110.779L134.737 117.942Z" fill="#2A5313"/>
<path id="Vector_93" d="M111.297 132.711L103.258 119.075L116.912 111.046L124.951 124.682L111.297 132.711Z" fill="#2A5313"/>
<path id="Vector_94" d="M87.3169 147.348L78.8086 132.917L93.2585 124.42L101.767 138.851L87.3169 147.348Z" fill="#2A5313"/>
<path id="Vector_95" d="M65.7292 156.17L60.6084 147.485L69.3053 142.371L74.4262 151.056L65.7292 156.17Z" fill="#2A5313"/>
<path id="Vector_96" d="M44.0266 167.769L39.9258 160.813L46.8904 156.718L50.9913 163.673L44.0266 167.769Z" fill="#2A5313"/>
</g>
<g id="Group_18">
<path id="Vector_97" d="M146.741 74.5114L143.07 64.6998L152.895 61.0336L156.566 70.8452L146.741 74.5114Z" fill="#2A5313"/>
<path id="Vector_98" d="M118.61 86.9551L113.662 73.73L126.905 68.7882L131.853 82.0133L118.61 86.9551Z" fill="#2A5313"/>
<path id="Vector_99" d="M92.9593 97.4376L87.4131 82.6145L102.256 77.0756L107.802 91.8987L92.9593 97.4376Z" fill="#2A5313"/>
<path id="Vector_100" d="M66.7956 107.69L60.9258 92.0026L76.6336 86.1406L82.5034 101.828L66.7956 107.69Z" fill="#2A5313"/>
<path id="Vector_101" d="M43.9987 112.636L40.4658 103.194L49.9198 99.6661L53.4527 109.108L43.9987 112.636Z" fill="#2A5313"/>
<path id="Vector_102" d="M20.6124 120.291L17.7832 112.731L25.3542 109.905L28.1833 117.466L20.6124 120.291Z" fill="#2A5313"/>
</g>
<g id="Group_19">
<path id="Vector_103" d="M137.984 46.2669L136.074 35.9677L146.387 34.0609L148.296 44.3601L137.984 46.2669Z" fill="#2A5313"/>
<path id="Vector_104" d="M108.117 53.6426L105.543 39.7603L119.444 37.1901L122.017 51.0725L108.117 53.6426Z" fill="#2A5313"/>
<path id="Vector_105" d="M81.032 59.5178L78.1475 43.9581L93.7278 41.0774L96.6123 56.6371L81.032 59.5178Z" fill="#2A5313"/>
<path id="Vector_106" d="M53.4814 65.0814L50.4287 48.6146L66.9172 45.566L69.9699 62.0327L53.4814 65.0814Z" fill="#2A5313"/>
<path id="Vector_107" d="M30.1723 65.999L28.335 56.0882L38.2589 54.2534L40.0962 64.1641L30.1723 65.999Z" fill="#2A5313"/>
<path id="Vector_108" d="M5.81119 69.4834L4.33984 61.5467L12.2871 60.0773L13.7584 68.014L5.81119 69.4834Z" fill="#2A5313"/>
</g>
<g id="Group_20">
<path id="Vector_109" d="M134.27 16.9318L134.181 6.45801L144.668 6.36863L144.758 16.8424L134.27 16.9318Z" fill="#2A5313"/>
<path id="Vector_110" d="M103.574 19.0153L103.453 4.89755L117.59 4.77708L117.71 18.8948L103.574 19.0153Z" fill="#2A5313"/>
<path id="Vector_111" d="M75.8793 20.1042L75.7441 4.28067L91.5887 4.14565L91.7239 19.9692L75.8793 20.1042Z" fill="#2A5313"/>
<path id="Vector_112" d="M47.7808 20.8057L47.6377 4.05972L64.4059 3.91683L64.5489 20.6628L47.7808 20.8057Z" fill="#2A5313"/>
<path id="Vector_113" d="M24.6672 17.6688L24.5811 7.58997L34.6732 7.50396L34.7593 17.5828L24.6672 17.6688Z" fill="#2A5313"/>
<path id="Vector_114" d="M0.0689647 16.8742L0 8.80292L8.08199 8.73404L8.15096 16.8053L0.0689647 16.8742Z" fill="#2A5313"/>
</g>
</g>
</g>
</g>
</svg>
